<?xml version="1.0" encoding="UTF-8"?>
<svg version="1.1" xmlns="http://www.w3.org/2000/svg" width="911" height="911">
<path d="M0 0 C1.69889626 -0.01496269 1.69889626 -0.01496269 3.43211365 -0.03022766 C4.66032333 -0.03089233 5.88853302 -0.03155701 7.15396118 -0.03224182 C8.45871902 -0.04056534 9.76347687 -0.04888885 11.10777283 -0.0574646 C14.67603141 -0.07934312 18.24420434 -0.08819928 21.81252241 -0.09329104 C24.04486185 -0.09694193 26.2771791 -0.10318572 28.50951004 -0.11029243 C36.30588002 -0.13476203 44.10218368 -0.14783382 51.89859009 -0.15138245 C59.15257568 -0.15501773 66.40613819 -0.18491861 73.65999448 -0.22678703 C79.89969395 -0.26153242 86.13925343 -0.2769316 92.37904894 -0.27762848 C96.10063843 -0.27841974 99.82179633 -0.28708807 103.54328537 -0.31562614 C107.69636446 -0.34676428 111.84844041 -0.33772703 116.00161743 -0.32521057 C117.22577866 -0.34004486 118.44993988 -0.35487915 119.7111969 -0.37016296 C126.55389759 -0.31146722 132.13093943 0.26799205 137.20718384 5.27415466 C137.20718384 5.93415466 137.20718384 6.59415466 137.20718384 7.27415466 C137.80530884 7.37727966 138.40343384 7.48040466 139.01968384 7.58665466 C141.54139736 8.3791932 142.60404083 9.19006875 144.20718384 11.27415466 C144.20718384 12.26415466 144.20718384 13.25415466 144.20718384 14.27415466 C144.84655884 14.54227966 145.48593384 14.81040466 146.14468384 15.08665466 C148.20718384 16.27415466 148.20718384 16.27415466 149.20718384 19.27415466 C149.86718384 19.27415466 150.52718384 19.27415466 151.20718384 19.27415466 C151.20718384 20.59415466 151.20718384 21.91415466 151.20718384 23.27415466 C151.86718384 23.27415466 152.52718384 23.27415466 153.20718384 23.27415466 C153.20718384 23.93415466 153.20718384 24.59415466 153.20718384 25.27415466 C153.86718384 25.27415466 154.52718384 25.27415466 155.20718384 25.27415466 C157.50367033 27.83562036 158.20718384 28.75383038 158.20718384 32.27415466 C158.86718384 32.27415466 159.52718384 32.27415466 160.20718384 32.27415466 C161.49624634 33.73509216 161.49624634 33.73509216 162.83218384 35.64915466 C163.27819946 36.27563904 163.72421509 36.90212341 164.18374634 37.54759216 C165.20718384 39.27415466 165.20718384 39.27415466 165.20718384 41.27415466 C165.86718384 41.27415466 166.52718384 41.27415466 167.20718384 41.27415466 C167.20718384 42.26415466 167.20718384 43.25415466 167.20718384 44.27415466 C167.86718384 44.27415466 168.52718384 44.27415466 169.20718384 44.27415466 C169.20718384 45.59415466 169.20718384 46.91415466 169.20718384 48.27415466 C169.84655884 48.50102966 170.48593384 48.72790466 171.14468384 48.96165466 C173.20718384 50.27415466 173.20718384 50.27415466 173.95718384 52.89915466 C174.03968384 53.68290466 174.12218384 54.46665466 174.20718384 55.27415466 C174.86718384 55.27415466 175.52718384 55.27415466 176.20718384 55.27415466 C176.20718384 55.93415466 176.20718384 56.59415466 176.20718384 57.27415466 C176.86718384 57.27415466 177.52718384 57.27415466 178.20718384 57.27415466 C181.20718384 61.65877005 181.20718384 61.65877005 181.20718384 64.27415466 C181.86718384 64.27415466 182.52718384 64.27415466 183.20718384 64.27415466 C185.20718384 67.27415466 185.20718384 67.27415466 185.20718384 71.27415466 C185.80530884 71.50102966 186.40343384 71.72790466 187.01968384 71.96165466 C189.80066787 73.63024508 190.77137544 75.40253786 192.20718384 78.27415466 C192.20718384 78.93415466 192.20718384 79.59415466 192.20718384 80.27415466 C192.86718384 80.27415466 193.52718384 80.27415466 194.20718384 80.27415466 C194.20718384 80.93415466 194.20718384 81.59415466 194.20718384 82.27415466 C194.86718384 82.27415466 195.52718384 82.27415466 196.20718384 82.27415466 C196.53718384 83.92415466 196.86718384 85.57415466 197.20718384 87.27415466 C197.86718384 87.27415466 198.52718384 87.27415466 199.20718384 87.27415466 C199.20718384 87.93415466 199.20718384 88.59415466 199.20718384 89.27415466 C199.86718384 89.27415466 200.52718384 89.27415466 201.20718384 89.27415466 C201.20718384 90.59415466 201.20718384 91.91415466 201.20718384 93.27415466 C202.19718384 93.60415466 203.18718384 93.93415466 204.20718384 94.27415466 C209.46927993 100.8913725 209.15083122 110.27206805 208.50845337 118.27708435 C207.82828178 122.7858393 205.76121882 126.56168239 203.20718384 130.27415466 C202.54718384 130.27415466 201.88718384 130.27415466 201.20718384 130.27415466 C200.54718384 131.59415466 199.88718384 132.91415466 199.20718384 134.27415466 C198.54718384 134.27415466 197.88718384 134.27415466 197.20718384 134.27415466 C196.87718384 135.26415466 196.54718384 136.25415466 196.20718384 137.27415466 C195.54718384 137.27415466 194.88718384 137.27415466 194.20718384 137.27415466 C194.20718384 137.93415466 194.20718384 138.59415466 194.20718384 139.27415466 C189.20645067 142.07456524 183.95266968 143.62236593 178.20718384 143.27415466 C178.20718384 144.26415466 178.20718384 145.25415466 178.20718384 146.27415466 C178.84655884 146.50102966 179.48593384 146.72790466 180.14468384 146.96165466 C182.20718384 148.27415466 182.20718384 148.27415466 182.95718384 150.89915466 C183.03968384 151.68290466 183.12218384 152.46665466 183.20718384 153.27415466 C183.86718384 153.27415466 184.52718384 153.27415466 185.20718384 153.27415466 C185.20718384 153.93415466 185.20718384 154.59415466 185.20718384 155.27415466 C185.86718384 155.27415466 186.52718384 155.27415466 187.20718384 155.27415466 C187.53718384 156.92415466 187.86718384 158.57415466 188.20718384 160.27415466 C188.86718384 160.27415466 189.52718384 160.27415466 190.20718384 160.27415466 C190.20718384 160.93415466 190.20718384 161.59415466 190.20718384 162.27415466 C190.86718384 162.27415466 191.52718384 162.27415466 192.20718384 162.27415466 C192.20718384 162.93415466 192.20718384 163.59415466 192.20718384 164.27415466 C192.86718384 164.27415466 193.52718384 164.27415466 194.20718384 164.27415466 C194.20718384 165.92415466 194.20718384 167.57415466 194.20718384 169.27415466 C195.19718384 169.27415466 196.18718384 169.27415466 197.20718384 169.27415466 C197.20718384 169.93415466 197.20718384 170.59415466 197.20718384 171.27415466 C197.86718384 171.27415466 198.52718384 171.27415466 199.20718384 171.27415466 C199.20718384 172.26415466 199.20718384 173.25415466 199.20718384 174.27415466 C199.86718384 174.27415466 200.52718384 174.27415466 201.20718384 174.27415466 C201.20718384 175.59415466 201.20718384 176.91415466 201.20718384 178.27415466 C202.19718384 178.60415466 203.18718384 178.93415466 204.20718384 179.27415466 C206.16260572 182.25874596 206.20718384 183.53830257 206.20718384 187.27415466 C206.86718384 187.27415466 207.52718384 187.27415466 208.20718384 187.27415466 C208.29515665 190.46147721 208.34789724 193.64848254 208.39468384 196.83665466 C208.43238892 198.17953552 208.43238892 198.17953552 208.47085571 199.54954529 C208.53357313 205.25683001 207.98688668 209.24930721 205.20718384 214.27415466 C203.01968384 215.71165466 203.01968384 215.71165466 201.20718384 216.27415466 C201.20718384 217.26415466 201.20718384 218.25415466 201.20718384 219.27415466 C200.54718384 219.27415466 199.88718384 219.27415466 199.20718384 219.27415466 C199.20718384 219.93415466 199.20718384 220.59415466 199.20718384 221.27415466 C198.54718384 221.27415466 197.88718384 221.27415466 197.20718384 221.27415466 C197.20718384 221.93415466 197.20718384 222.59415466 197.20718384 223.27415466 C196.21718384 223.27415466 195.22718384 223.27415466 194.20718384 223.27415466 C194.20718384 223.93415466 194.20718384 224.59415466 194.20718384 225.27415466 C190.11282916 228.80377076 185.69826029 228.77331882 180.53530884 229.06321716 C178.24793915 229.01992708 178.24793915 229.01992708 177.20718384 230.27415466 C174.22593772 230.37437236 171.26778016 230.40853614 168.28604126 230.40113831 C167.33850825 230.4026983 166.39097525 230.40425829 165.41472912 230.40586555 C162.2140215 230.40987992 159.01336063 230.40668422 155.81265259 230.40354919 C153.5284421 230.40490304 151.24423183 230.40668288 148.96002197 230.40885925 C142.73706659 230.41343556 136.51412771 230.41164322 130.29117203 230.40848017 C123.79466964 230.40595758 117.2981687 230.40829382 110.80166626 230.40986633 C99.18964058 230.41180521 87.57762247 230.40868735 75.96559799 230.403607 C65.42665672 230.39913895 54.88772647 230.39991488 44.3487854 230.40452576 C32.1246039 230.4098714 19.90043024 230.41187242 7.6762476 230.40891349 C1.20009662 230.40735025 -5.27604677 230.40715823 -11.75219727 230.41044998 C-17.83909489 230.41332747 -23.92597162 230.41135526 -30.01286697 230.40555573 C-32.25390208 230.40422747 -34.49493893 230.40462334 -36.73597336 230.40681839 C-39.78123095 230.40952733 -42.8264204 230.40615192 -45.87167358 230.40113831 C-46.77077863 230.40336903 -47.66988367 230.40559975 -48.59623432 230.40789807 C-54.67866635 230.38830448 -54.67866635 230.38830448 -55.79281616 229.27415466 C-57.54011755 229.11584212 -59.29111676 228.99751212 -61.04281616 228.89915466 C-65.32197074 228.54858673 -68.43063794 228.17258416 -71.79281616 225.27415466 C-71.79281616 224.61415466 -71.79281616 223.95415466 -71.79281616 223.27415466 C-72.57656616 223.19165466 -73.36031616 223.10915466 -74.16781616 223.02415466 C-76.79281616 222.27415466 -76.79281616 222.27415466 -78.10531616 220.21165466 C-78.33219116 219.57227966 -78.55906616 218.93290466 -78.79281616 218.27415466 C-79.45281616 218.27415466 -80.11281616 218.27415466 -80.79281616 218.27415466 C-80.79281616 216.95415466 -80.79281616 215.63415466 -80.79281616 214.27415466 C-81.45281616 214.27415466 -82.11281616 214.27415466 -82.79281616 214.27415466 C-86.18447038 208.83487941 -86.31040513 204.17495665 -86.29281616 197.96165466 C-86.33535522 196.61297302 -86.33535522 196.61297302 -86.37875366 195.23704529 C-86.39851003 188.40628075 -84.59927457 183.90871481 -80.79281616 178.27415466 C-80.13281616 178.27415466 -79.47281616 178.27415466 -78.79281616 178.27415466 C-78.64844116 177.49040466 -78.50406616 176.70665466 -78.35531616 175.89915466 C-77.79281616 173.27415466 -77.79281616 173.27415466 -76.79281616 171.27415466 C-76.13281616 171.27415466 -75.47281616 171.27415466 -74.79281616 171.27415466 C-74.29781616 169.29415466 -74.29781616 169.29415466 -73.79281616 167.27415466 C-73.13281616 167.27415466 -72.47281616 167.27415466 -71.79281616 167.27415466 C-71.79281616 166.28415466 -71.79281616 165.29415466 -71.79281616 164.27415466 C-71.13281616 164.27415466 -70.47281616 164.27415466 -69.79281616 164.27415466 C-69.79281616 163.61415466 -69.79281616 162.95415466 -69.79281616 162.27415466 C-69.13281616 162.27415466 -68.47281616 162.27415466 -67.79281616 162.27415466 C-67.46281616 160.95415466 -67.13281616 159.63415466 -66.79281616 158.27415466 C-66.13281616 158.27415466 -65.47281616 158.27415466 -64.79281616 158.27415466 C-64.79281616 157.28415466 -64.79281616 156.29415466 -64.79281616 155.27415466 C-64.13281616 155.27415466 -63.47281616 155.27415466 -62.79281616 155.27415466 C-62.68066772 154.69149841 -62.56851929 154.10884216 -62.45297241 153.50852966 C-61.7328074 151.07104809 -60.74902221 149.54909607 -59.23031616 147.52415466 C-58.7752771 146.91056091 -58.32023804 146.29696716 -57.85140991 145.66477966 C-57.50207397 145.20587341 -57.15273804 144.74696716 -56.79281616 144.27415466 C-57.82406616 144.15040466 -58.85531616 144.02665466 -59.91781616 143.89915466 C-63.41398462 143.33525652 -66.47679243 142.48733408 -69.79281616 141.27415466 C-69.79281616 140.61415466 -69.79281616 139.95415466 -69.79281616 139.27415466 C-70.53531616 139.00602966 -71.27781616 138.73790466 -72.04281616 138.46165466 C-75.54984371 136.9472564 -77.99489575 135.55082732 -80.04281616 132.27415466 C-80.79281616 130.27415466 -80.79281616 130.27415466 -80.79281616 127.27415466 C-81.45281616 127.27415466 -82.11281616 127.27415466 -82.79281616 127.27415466 C-86.15409218 121.87655005 -86.24885494 117.3660996 -86.16781616 111.21165466 C-86.17941772 110.32671326 -86.19101929 109.44177185 -86.20297241 108.53001404 C-86.18122104 103.69758314 -86.0731552 100.12255241 -82.79281616 96.27415466 C-82.13281616 96.27415466 -81.47281616 96.27415466 -80.79281616 96.27415466 C-80.79281616 94.62415466 -80.79281616 92.97415466 -80.79281616 91.27415466 C-80.13281616 91.27415466 -79.47281616 91.27415466 -78.79281616 91.27415466 C-78.64844116 90.65540466 -78.50406616 90.03665466 -78.35531616 89.39915466 C-77.79281616 87.27415466 -77.79281616 87.27415466 -76.79281616 85.27415466 C-76.13281616 85.27415466 -75.47281616 85.27415466 -74.79281616 85.27415466 C-73.58653609 82.94201318 -72.62734237 80.77773328 -71.79281616 78.27415466 C-71.13281616 78.27415466 -70.47281616 78.27415466 -69.79281616 78.27415466 C-69.79281616 77.28415466 -69.79281616 76.29415466 -69.79281616 75.27415466 C-69.13281616 75.27415466 -68.47281616 75.27415466 -67.79281616 75.27415466 C-67.46281616 73.95415466 -67.13281616 72.63415466 -66.79281616 71.27415466 C-66.13281616 71.27415466 -65.47281616 71.27415466 -64.79281616 71.27415466 C-64.79281616 70.61415466 -64.79281616 69.95415466 -64.79281616 69.27415466 C-64.13281616 69.27415466 -63.47281616 69.27415466 -62.79281616 69.27415466 C-62.71031616 68.73790466 -62.62781616 68.20165466 -62.54281616 67.64915466 C-61.51700345 64.40074775 -59.82717722 61.98663608 -57.79281616 59.27415466 C-57.13281616 59.27415466 -56.47281616 59.27415466 -55.79281616 59.27415466 C-55.64844116 58.65540466 -55.50406616 58.03665466 -55.35531616 57.39915466 C-54.79281616 55.27415466 -54.79281616 55.27415466 -53.79281616 53.27415466 C-53.13281616 53.27415466 -52.47281616 53.27415466 -51.79281616 53.27415466 C-51.46281616 51.95415466 -51.13281616 50.63415466 -50.79281616 49.27415466 C-50.13281616 49.27415466 -49.47281616 49.27415466 -48.79281616 49.27415466 C-48.79281616 48.28415466 -48.79281616 47.29415466 -48.79281616 46.27415466 C-48.13281616 46.27415466 -47.47281616 46.27415466 -46.79281616 46.27415466 C-46.52469116 45.53165466 -46.25656616 44.78915466 -45.98031616 44.02415466 C-44.84004866 41.38353518 -43.6990131 39.41862622 -41.79281616 37.27415466 C-41.13281616 37.27415466 -40.47281616 37.27415466 -39.79281616 37.27415466 C-39.79281616 36.28415466 -39.79281616 35.29415466 -39.79281616 34.27415466 C-39.13281616 34.27415466 -38.47281616 34.27415466 -37.79281616 34.27415466 C-37.71031616 33.65540466 -37.62781616 33.03665466 -37.54281616 32.39915466 C-36.55656177 29.60476723 -35.35891217 29.55720267 -32.79281616 28.27415466 C-32.04038061 26.34777454 -32.04038061 26.34777454 -31.79281616 24.27415466 C-31.29781616 22.78915466 -31.29781616 22.78915466 -30.79281616 21.27415466 C-30.13281616 21.27415466 -29.47281616 21.27415466 -28.79281616 21.27415466 C-28.52469116 20.63477966 -28.25656616 19.99540466 -27.98031616 19.33665466 C-26.79281616 17.27415466 -26.79281616 17.27415466 -23.79281616 16.27415466 C-23.79281616 14.95415466 -23.79281616 13.63415466 -23.79281616 12.27415466 C-23.13281616 12.27415466 -22.47281616 12.27415466 -21.79281616 12.27415466 C-21.56594116 11.67602966 -21.33906616 11.07790466 -21.10531616 10.46165466 C-19.43672574 7.68067063 -17.66443297 6.70996306 -14.79281616 5.27415466 C-14.13281616 5.27415466 -13.47281616 5.27415466 -12.79281616 5.27415466 C-12.46281616 4.28415466 -12.13281616 3.29415466 -11.79281616 2.27415466 C-7.80738252 0.54688139 -4.31427649 0.02048108 0 0 Z " fill="#CF62E9" transform="translate(394.7928161621094,340.72584533691406)"/>
<path d="M0 0 C0.33 0.66 0.66 1.32 1 2 C1.66 2 2.32 2 3 2 C3 2.66 3 3.32 3 4 C3.66 4 4.32 4 5 4 C8 8.38461538 8 8.38461538 8 11 C8.66 11 9.32 11 10 11 C12 14 12 14 12 18 C12.598125 18.226875 13.19625 18.45375 13.8125 18.6875 C16.59348403 20.35609042 17.5641916 22.1283832 19 25 C19 25.66 19 26.32 19 27 C19.66 27 20.32 27 21 27 C21 27.66 21 28.32 21 29 C21.66 29 22.32 29 23 29 C23.33 30.65 23.66 32.3 24 34 C24.66 34 25.32 34 26 34 C26 34.66 26 35.32 26 36 C26.66 36 27.32 36 28 36 C28 37.32 28 38.64 28 40 C28.99 40.33 29.98 40.66 31 41 C36.2620961 47.61721783 35.94364738 56.99791338 35.30126953 65.00292969 C34.62109794 69.51168464 32.55403498 73.28752773 30 77 C29.34 77 28.68 77 28 77 C27.34 78.32 26.68 79.64 26 81 C25.34 81 24.68 81 24 81 C23.67 81.99 23.34 82.98 23 84 C22.34 84 21.68 84 21 84 C21 84.66 21 85.32 21 86 C15.99926683 88.80041057 10.74548584 90.34821126 5 90 C5 90.99 5 91.98 5 93 C5.639375 93.226875 6.27875 93.45375 6.9375 93.6875 C9 95 9 95 9.75 97.625 C9.8325 98.40875 9.915 99.1925 10 100 C10.66 100 11.32 100 12 100 C12 100.66 12 101.32 12 102 C12.66 102 13.32 102 14 102 C14.33 103.65 14.66 105.3 15 107 C15.66 107 16.32 107 17 107 C17 107.66 17 108.32 17 109 C17.66 109 18.32 109 19 109 C19 109.66 19 110.32 19 111 C19.66 111 20.32 111 21 111 C21 112.65 21 114.3 21 116 C21.99 116 22.98 116 24 116 C24 116.66 24 117.32 24 118 C24.66 118 25.32 118 26 118 C26 118.99 26 119.98 26 121 C26.66 121 27.32 121 28 121 C28 122.32 28 123.64 28 125 C28.99 125.33 29.98 125.66 31 126 C32.95542188 128.98459129 33 130.26414791 33 134 C33.66 134 34.32 134 35 134 C35.08797281 137.18732254 35.14071341 140.37432788 35.1875 143.5625 C35.22520508 144.90538086 35.22520508 144.90538086 35.26367188 146.27539062 C35.32638929 151.98267534 34.77970285 155.97515255 32 161 C29.8125 162.4375 29.8125 162.4375 28 163 C28 163.99 28 164.98 28 166 C27.34 166 26.68 166 26 166 C26 166.66 26 167.32 26 168 C25.34 168 24.68 168 24 168 C24 168.66 24 169.32 24 170 C23.01 170 22.02 170 21 170 C21 170.66 21 171.32 21 172 C16.90564533 175.5296161 12.49107645 175.49916416 7.328125 175.7890625 C5.04075531 175.74577242 5.04075531 175.74577242 4 177 C1.01875388 177.1002177 -1.93940368 177.13438148 -4.92114258 177.12698364 C-5.86867558 177.12854363 -6.81620859 177.13010362 -7.79245472 177.13171089 C-10.99316234 177.13572526 -14.19382321 177.13252956 -17.39453125 177.12939453 C-19.67874174 177.13074838 -21.96295201 177.13252822 -24.24716187 177.13470459 C-30.47011724 177.1392809 -36.69305613 177.13748856 -42.91601181 177.1343255 C-49.4125142 177.13180292 -55.90901513 177.13413916 -62.40551758 177.13571167 C-74.01754325 177.13765054 -85.62956137 177.13453269 -97.24158585 177.12945233 C-107.78052712 177.12498429 -118.31945737 177.12576022 -128.85839844 177.13037109 C-141.08257994 177.13571673 -153.3067536 177.13771776 -165.53093624 177.13475883 C-172.00708722 177.13319559 -178.4832306 177.13300357 -184.9593811 177.13629532 C-191.04627873 177.13917281 -197.13315545 177.1372006 -203.22005081 177.13140106 C-205.46108592 177.1300728 -207.70212277 177.13046868 -209.9431572 177.13266373 C-212.98841479 177.13537267 -216.03360424 177.13199726 -219.07885742 177.12698364 C-219.97796247 177.12921436 -220.87706751 177.13144509 -221.80341816 177.13374341 C-227.88585019 177.11414981 -227.88585019 177.11414981 -229 176 C-230.74730139 175.84168746 -232.49830059 175.72335745 -234.25 175.625 C-238.52915458 175.27443207 -241.63782178 174.8984295 -245 172 C-245 171.34 -245 170.68 -245 170 C-245.78375 169.9175 -246.5675 169.835 -247.375 169.75 C-250 169 -250 169 -251.3125 166.9375 C-251.539375 166.298125 -251.76625 165.65875 -252 165 C-252.66 165 -253.32 165 -254 165 C-254 163.68 -254 162.36 -254 161 C-254.66 161 -255.32 161 -256 161 C-259.39165422 155.56072475 -259.51758897 150.90080198 -259.5 144.6875 C-259.54253906 143.33881836 -259.54253906 143.33881836 -259.5859375 141.96289062 C-259.60569387 135.13212609 -257.80645841 130.63456015 -254 125 C-253.34 125 -252.68 125 -252 125 C-251.855625 124.21625 -251.71125 123.4325 -251.5625 122.625 C-251 120 -251 120 -250 118 C-249.34 118 -248.68 118 -248 118 C-247.67 116.68 -247.34 115.36 -247 114 C-246.34 114 -245.68 114 -245 114 C-245 113.01 -245 112.02 -245 111 C-244.34 111 -243.68 111 -243 111 C-243 110.34 -243 109.68 -243 109 C-242.34 109 -241.68 109 -241 109 C-240.67 107.68 -240.34 106.36 -240 105 C-239.34 105 -238.68 105 -238 105 C-238 104.01 -238 103.02 -238 102 C-237.34 102 -236.68 102 -236 102 C-235.88785156 101.41734375 -235.77570313 100.8346875 -235.66015625 100.234375 C-234.93999124 97.79689343 -233.95620605 96.2749414 -232.4375 94.25 C-231.98246094 93.63640625 -231.52742188 93.0228125 -231.05859375 92.390625 C-230.70925781 91.93171875 -230.35992187 91.4728125 -230 91 C-231.03125 90.87625 -232.0625 90.7525 -233.125 90.625 C-236.62116846 90.06110186 -239.68397627 89.21317941 -243 88 C-243 87.34 -243 86.68 -243 86 C-243.7425 85.731875 -244.485 85.46375 -245.25 85.1875 C-248.75702755 83.67310174 -251.20207959 82.27667266 -253.25 79 C-254 77 -254 77 -254 74 C-254.66 74 -255.32 74 -256 74 C-259.37484518 68.58953392 -259.45584659 64.04628967 -259.375 57.875 C-259.38660156 56.98167969 -259.39820313 56.08835937 -259.41015625 55.16796875 C-259.38121218 48.71344179 -259.38121218 48.71344179 -257.6015625 45.3828125 C-256 44 -256 44 -254 44 C-253.91057968 50.14019499 -253.93930914 55.93890936 -255 62 C-254.6814823 64.10820797 -254.6814823 64.10820797 -254 66 C-253.66666667 67.33333333 -253.33333333 68.66666667 -253 70 C-252.34 68.02 -251.68 66.04 -251 64 C-250.34 64 -249.68 64 -249 64 C-247.83020941 68.28923217 -248.3774032 71.64182241 -249 76 C-248.64025105 78.81237541 -248.64025105 78.81237541 -248 81 C-246.02 80.505 -246.02 80.505 -244 80 C-243.67 80.99 -243.34 81.98 -243 83 C-242.01 83 -241.02 83 -240 83 C-240 83.66 -240 84.32 -240 85 C-237.66800803 85.34731795 -235.33577264 85.67973867 -233 86 C-232.24332031 86.10699219 -231.48664063 86.21398437 -230.70703125 86.32421875 C-229.93746094 86.42347656 -229.16789062 86.52273438 -228.375 86.625 C-227.66085937 86.72039062 -226.94671875 86.81578125 -226.2109375 86.9140625 C-223.99917252 87.09699554 -223.99917252 87.09699554 -221.89304543 86.51330757 C-218.09042766 85.8386163 -214.34837061 85.86221943 -210.50033569 85.87301636 C-209.6462788 85.87145637 -208.7922219 85.86989638 -207.91228449 85.86828911 C-205.05136871 85.8643016 -202.19050602 85.86746014 -199.32958984 85.87060547 C-197.27776051 85.86925037 -195.22593141 85.86746983 -193.17410278 85.86529541 C-187.59945185 85.86073227 -182.0248194 85.86250652 -176.45016813 85.8656745 C-170.61233692 85.8682059 -164.7745073 85.86585818 -158.93667603 85.86428833 C-149.12623816 85.86246806 -139.31580782 85.86486832 -129.50537109 85.86962891 C-118.17824904 85.87506216 -106.85114502 85.87331512 -95.52402341 85.8678025 C-85.79219483 85.86325647 -76.06037166 85.86262839 -66.32854235 85.86524117 C-60.5194746 85.86679691 -54.71041531 85.86701717 -48.90134811 85.86370468 C-43.43323046 85.86080465 -37.96513589 85.86284074 -32.49702072 85.86859894 C-30.49561603 85.86991551 -28.49420938 85.86955125 -26.49280548 85.86733627 C-8.11232231 85.84887857 -8.11232231 85.84887857 0.0077877 86.81974983 C4.33755938 87.21149627 8.19665003 85.99800749 12 84 C14.26325246 81.02236957 14.26325246 81.02236957 16 78 C19.25 76.625 19.25 76.625 22 76 C22 76.66 22 77.32 22 78 C23.64555699 76.77190909 23.64555699 76.77190909 25 75 C24.59070014 72.94603274 24.59070014 72.94603274 24 71 C24.66 70.34 25.32 69.68 26 69 C27.19602751 63.43524924 26.95673205 58.18597091 26.5625 52.5625 C26.51029297 51.73556641 26.45808594 50.90863281 26.40429688 50.05664062 C26.27590237 48.03734522 26.13884576 46.01860371 26 44 C24.68 44.33 23.36 44.66 22 45 C20.72648692 42.45297384 21.19808075 41.5717055 21.9375 38.875 C22.13214844 38.15054688 22.32679688 37.42609375 22.52734375 36.6796875 C22.68332031 36.12539063 22.83929687 35.57109375 23 35 C20.69 34.67 18.38 34.34 16 34 C14.84058962 30.52176885 15.29179116 28.54104422 16 25 C15.34 25 14.68 25 14 25 C14 24.34 14 23.68 14 23 C13.01 22.67 12.02 22.34 11 22 C9.94952356 19.68895182 8.94992562 17.35416349 8 15 C7.34 14.34 6.68 13.68 6 13 C5.34 14.32 4.68 15.64 4 17 C3.34 16.34 2.68 15.68 2 15 C2 14.01 2 13.02 2 12 C1.53833738 9.992592 0.98815403 8.01980516 0.4375 6.03515625 C0 4 0 4 0 0 Z " fill="#DD6DE9" transform="translate(568,394)"/>
<path d="M0 0 C0.66 0 1.32 0 2 0 C2 1.32 2 2.64 2 4 C1.34 4 0.68 4 0 4 C-0.12375 4.598125 -0.2475 5.19625 -0.375 5.8125 C-1 8 -1 8 -3 11 C-3.66 11 -4.32 11 -5 11 C-5 11.66 -5 12.32 -5 13 C-5.66 13 -6.32 13 -7 13 C-7 14.65 -7 16.3 -7 18 C-7.66 18 -8.32 18 -9 18 C-8.938125 19.546875 -8.938125 19.546875 -8.875 21.125 C-8.99700331 24.90710249 -9.77059659 27.46546519 -11 31 C-11.0396713 32.66619446 -11.04384447 34.33391013 -11 36 C-11.14953125 36.59554687 -11.2990625 37.19109375 -11.453125 37.8046875 C-12.09160602 40.36773272 -12.40968811 42.87341488 -12.6875 45.5 C-12.79449219 46.4384375 -12.90148437 47.376875 -13.01171875 48.34375 C-12.99922163 51.17643098 -12.46811708 52.61501287 -11 55 C-10.34 55 -9.68 55 -9 55 C-8.67 56.32 -8.34 57.64 -8 59 C-7.21625 59.0825 -6.4325 59.165 -5.625 59.25 C-3 60 -3 60 -1.6875 62.0625 C-1.3471875 63.0215625 -1.3471875 63.0215625 -1 64 C-0.34 63.34 0.32 62.68 1 62 C1 63.65 1 65.3 1 67 C2.11145386 66.75660889 2.11145386 66.75660889 3.24536133 66.50830078 C8.5277451 65.79317476 13.74962059 65.8575549 19.07421875 65.8671875 C20.23500443 65.86623077 21.3957901 65.86527405 22.5917511 65.86428833 C25.03846287 65.86360934 27.48517647 65.86544402 29.93188477 65.86962891 C33.6844484 65.87499564 37.43689313 65.86966691 41.18945312 65.86328125 C43.5677086 65.8639418 45.945964 65.86522247 48.32421875 65.8671875 C49.44922287 65.86516327 50.57422699 65.86313904 51.73332214 65.86105347 C53.29558281 65.86578171 53.29558281 65.86578171 54.8894043 65.87060547 C55.80618454 65.87140106 56.72296478 65.87219666 57.66752625 65.87301636 C60 66 60 66 63 67 C63.33 66.34 63.66 65.68 64 65 C64 65.66 64 66.32 64 67 C65.81293089 66.85962479 67.6253443 66.71255111 69.4375 66.5625 C70.44683594 66.48128906 71.45617187 66.40007812 72.49609375 66.31640625 C74.93640779 66.26788532 74.93640779 66.26788532 76 65 C77.53896858 64.89976067 79.08277741 64.87034072 80.625 64.875 C81.46289062 64.87242187 82.30078125 64.86984375 83.1640625 64.8671875 C86 65 86 65 89.18359375 65.47265625 C93.93229284 66.12882245 98.65149416 66.35231544 103.4375 66.5625 C104.82098633 66.62727539 104.82098633 66.62727539 106.23242188 66.69335938 C108.48816163 66.79854931 110.74399499 66.90069107 113 67 C113 66.34 113 65.68 113 65 C117.41941172 64.92985061 121.64975676 64.93877018 126.03387451 65.5 C131.13728242 66.07633531 136.17454861 66.12667341 141.30566406 66.09765625 C142.29381104 66.09619598 143.28195801 66.09473572 144.30004883 66.0932312 C146.42961382 66.08944709 148.55917573 66.08335398 150.68872833 66.07516479 C154.05972423 66.06233212 157.43068051 66.05586845 160.80169678 66.05102539 C167.95114906 66.039636 175.10056843 66.020379 182.25 66 C190.55116288 65.97638874 198.85230723 65.9560139 207.15349579 65.94406128 C210.47330728 65.93758258 213.79306143 65.92507818 217.112854 65.91235352 C219.14587352 65.90872135 221.17889356 65.90536957 223.21191406 65.90234375 C224.13357361 65.89717743 225.05523315 65.89201111 226.00482178 65.88668823 C230.13579876 65.88634647 233.97224899 65.94648605 238 67 C238 67.66 238 68.32 238 69 C239.98 69 241.96 69 244 69 C244 69.99 244 70.98 244 72 C214.46159505 72.02279006 184.92319051 72.04049802 155.38477862 72.05106533 C151.9011317 72.05231611 148.41748479 72.05361042 144.93383789 72.05493164 C144.24027757 72.05519395 143.54671726 72.05545626 142.83213996 72.05572652 C131.58752332 72.06008327 120.34291176 72.06797085 109.09829814 72.0771528 C97.56877683 72.08648919 86.03925911 72.09198068 74.50973409 72.09408849 C68.03021237 72.09539604 61.55070219 72.09848465 55.07118416 72.10573006 C48.9801993 72.11248622 42.88923082 72.11461779 36.79824257 72.11310768 C34.55559449 72.11338419 32.31294591 72.11539169 30.07030106 72.11920547 C27.02280405 72.12413643 23.97536999 72.12300051 20.9278717 72.12025452 C20.02808454 72.12316736 19.12829738 72.1260802 18.20124394 72.12908131 C12.11412121 72.11412121 12.11412121 72.11412121 11 71 C9.25269861 70.84168746 7.50169941 70.72335745 5.75 70.625 C1.47084542 70.27443207 -1.63782178 69.8984295 -5 67 C-5 66.34 -5 65.68 -5 65 C-5.78375 64.9175 -6.5675 64.835 -7.375 64.75 C-10 64 -10 64 -11.3125 61.9375 C-11.539375 61.298125 -11.76625 60.65875 -12 60 C-12.66 60 -13.32 60 -14 60 C-14 58.68 -14 57.36 -14 56 C-14.66 56 -15.32 56 -16 56 C-19.39165422 50.56072475 -19.51758897 45.90080198 -19.5 39.6875 C-19.52835937 38.78837891 -19.55671875 37.88925781 -19.5859375 36.96289062 C-19.60569387 30.13212609 -17.80645841 25.63456015 -14 20 C-13.34 20 -12.68 20 -12 20 C-11.855625 19.21625 -11.71125 18.4325 -11.5625 17.625 C-11 15 -11 15 -10 13 C-9.34 13 -8.68 13 -8 13 C-7.67 11.68 -7.34 10.36 -7 9 C-6.34 9 -5.68 9 -5 9 C-5 8.01 -5 7.02 -5 6 C-4.34 6 -3.68 6 -3 6 C-3 5.34 -3 4.68 -3 4 C-2.34 4 -1.68 4 -1 4 C-0.67 2.68 -0.34 1.36 0 0 Z " fill="#EFA9EB" transform="translate(328,499)"/>
<path d="M0 0 C1.69889626 -0.01496269 1.69889626 -0.01496269 3.43211365 -0.03022766 C4.66032333 -0.03089233 5.88853302 -0.03155701 7.15396118 -0.03224182 C8.45871902 -0.04056534 9.76347687 -0.04888885 11.10777283 -0.0574646 C14.67603141 -0.07934312 18.24420434 -0.08819928 21.81252241 -0.09329104 C24.04486185 -0.09694193 26.2771791 -0.10318572 28.50951004 -0.11029243 C36.30588002 -0.13476203 44.10218368 -0.14783382 51.89859009 -0.15138245 C59.15257568 -0.15501773 66.40613819 -0.18491861 73.65999448 -0.22678703 C79.89969395 -0.26153242 86.13925343 -0.2769316 92.37904894 -0.27762848 C96.10063843 -0.27841974 99.82179633 -0.28708807 103.54328537 -0.31562614 C107.69636446 -0.34676428 111.84844041 -0.33772703 116.00161743 -0.32521057 C117.22577866 -0.34004486 118.44993988 -0.35487915 119.7111969 -0.37016296 C126.55389759 -0.31146722 132.13093943 0.26799205 137.20718384 5.27415466 C137.20718384 5.93415466 137.20718384 6.59415466 137.20718384 7.27415466 C137.80530884 7.37727966 138.40343384 7.48040466 139.01968384 7.58665466 C141.59713202 8.39670981 142.63781959 9.07704471 144.20718384 11.27415466 C144.39468384 13.96165466 144.39468384 13.96165466 144.20718384 16.27415466 C144.86718384 16.27415466 145.52718384 16.27415466 146.20718384 16.27415466 C146.53718384 19.90415466 146.86718384 23.53415466 147.20718384 27.27415466 C146.54718384 27.60415466 145.88718384 27.93415466 145.20718384 28.27415466 C145.20718384 26.95415466 145.20718384 25.63415466 145.20718384 24.27415466 C144.54718384 24.27415466 143.88718384 24.27415466 143.20718384 24.27415466 C143.20718384 23.28415466 143.20718384 22.29415466 143.20718384 21.27415466 C140.56718384 21.27415466 137.92718384 21.27415466 135.20718384 21.27415466 C135.55780884 20.49040466 135.90843384 19.70665466 136.26968384 18.89915466 C136.57905884 18.03290466 136.88843384 17.16665466 137.20718384 16.27415466 C136.87718384 15.61415466 136.54718384 14.95415466 136.20718384 14.27415466 C133.88561787 13.86686239 131.55030514 13.5297679 129.20718384 13.27415466 C129.20718384 12.61415466 129.20718384 11.95415466 129.20718384 11.27415466 C127.22718384 11.27415466 125.24718384 11.27415466 123.20718384 11.27415466 C122.21718384 9.29415466 122.21718384 9.29415466 121.20718384 7.27415466 C106.44709083 7.20402129 91.68701992 7.15114532 76.92679405 7.11871815 C70.07309773 7.10326031 63.21950504 7.08219165 56.36587524 7.0478363 C49.75231789 7.01470022 43.13883994 6.99730327 36.52519608 6.98952293 C34.00141327 6.98397796 31.47763638 6.97315009 28.95389938 6.95696449 C25.42019646 6.93520204 21.88693904 6.93218732 18.35317993 6.93357849 C16.78656113 6.91739975 16.78656113 6.91739975 15.18829346 6.90089417 C9.71389136 6.92422987 5.98359494 7.29649846 1.20718384 10.27415466 C-0.11585333 10.64625887 -1.45019551 10.9804564 -2.79281616 11.27415466 C-7.29315107 12.51892815 -10.37353143 14.05600433 -13.79281616 17.27415466 C-13.79281616 17.93415466 -13.79281616 18.59415466 -13.79281616 19.27415466 C-14.45281616 19.27415466 -15.11281616 19.27415466 -15.79281616 19.27415466 C-16.12281616 19.93415466 -16.45281616 20.59415466 -16.79281616 21.27415466 C-18.43825396 22.96178318 -20.10570193 24.62818956 -21.79281616 26.27415466 C-22.45281616 26.93415466 -23.11281616 27.59415466 -23.79281616 28.27415466 C-24.78281616 28.27415466 -25.77281616 28.27415466 -26.79281616 28.27415466 C-26.13281616 26.62415466 -25.47281616 24.97415466 -24.79281616 23.27415466 C-24.13281616 23.27415466 -23.47281616 23.27415466 -22.79281616 23.27415466 C-22.71031616 22.55227966 -22.62781616 21.83040466 -22.54281616 21.08665466 C-21.64241893 17.71016505 -19.99098478 15.95317266 -17.79281616 13.27415466 C-17.01448083 11.09200898 -17.01448083 11.09200898 -16.79281616 9.27415466 C-16.13281616 9.27415466 -15.47281616 9.27415466 -14.79281616 9.27415466 C-14.79281616 8.61415466 -14.79281616 7.95415466 -14.79281616 7.27415466 C-14.13281616 7.27415466 -13.47281616 7.27415466 -12.79281616 7.27415466 C-12.46281616 5.62415466 -12.13281616 3.97415466 -11.79281616 2.27415466 C-7.72426299 0.7582649 -4.33612241 0.02058479 0 0 Z " fill="#883ACF" transform="translate(394.7928161621094,340.72584533691406)"/>
<path d="M0 0 C0 0.66 0 1.32 0 2 C-0.66 2 -1.32 2 -2 2 C-2 2.66 -2 3.32 -2 4 C-2.66 4 -3.32 4 -4 4 C-4.0825 4.886875 -4.165 5.77375 -4.25 6.6875 C-5.10062828 10.44444156 -6.51240104 12.1237137 -9 15 C-9.33 15.99 -9.66 16.98 -10 18 C-10.66 18 -11.32 18 -12 18 C-13.32297786 22.42814548 -13.32297786 22.42814548 -14.36328125 26.92578125 C-16.41890249 33.62231425 -22.17687251 39.17687251 -27 44 C-27.309375 44.78375 -27.61875 45.5675 -27.9375 46.375 C-29.25842036 49.63845031 -31.21763524 51.76048694 -33.5625 54.3515625 C-35.19274687 56.14959934 -35.19274687 56.14959934 -37 59 C-37.33 58.34 -37.66 57.68 -38 57 C-38.67546875 58.09699219 -39.3509375 59.19398438 -40.046875 60.32421875 C-40.94774667 61.77875113 -41.84879784 63.23317236 -42.75 64.6875 C-43.1934375 65.40873047 -43.636875 66.12996094 -44.09375 66.87304688 C-46.5283879 70.79352996 -49.08805941 74.41101679 -52 78 C-52.309375 78.804375 -52.61875 79.60875 -52.9375 80.4375 C-54.35208636 83.84914946 -56.61677277 86.19970801 -59 89 C-59.68177416 90.32567199 -60.35191436 91.65753688 -61 93 C-61.495 93.474375 -61.99 93.94875 -62.5 94.4375 C-64.39105734 96.4073514 -65.00571936 98.48115572 -66 101 C-66.99 101.495 -66.99 101.495 -68 102 C-68.06058594 101.37351562 -68.12117188 100.74703125 -68.18359375 100.1015625 C-68.30927734 98.87566406 -68.30927734 98.87566406 -68.4375 97.625 C-68.51871094 96.81289063 -68.59992188 96.00078125 -68.68359375 95.1640625 C-68.89090114 92.95727195 -68.89090114 92.95727195 -70 91 C-69.34 91 -68.68 91 -68 91 C-68 89.35 -68 87.7 -68 86 C-67.34 86 -66.68 86 -66 86 C-65.855625 85.38125 -65.71125 84.7625 -65.5625 84.125 C-65 82 -65 82 -64 80 C-63.34 80 -62.68 80 -62 80 C-60.79371992 77.66785852 -59.8345262 75.50357861 -59 73 C-58.34 73 -57.68 73 -57 73 C-57 72.01 -57 71.02 -57 70 C-56.34 70 -55.68 70 -55 70 C-54.67 68.68 -54.34 67.36 -54 66 C-53.34 66 -52.68 66 -52 66 C-52 65.34 -52 64.68 -52 64 C-51.34 64 -50.68 64 -50 64 C-49.9175 63.46375 -49.835 62.9275 -49.75 62.375 C-48.72418729 59.12659309 -47.03436106 56.71248141 -45 54 C-44.34 54 -43.68 54 -43 54 C-42.855625 53.38125 -42.71125 52.7625 -42.5625 52.125 C-42 50 -42 50 -41 48 C-40.34 48 -39.68 48 -39 48 C-38.67 46.68 -38.34 45.36 -38 44 C-37.34 44 -36.68 44 -36 44 C-36 43.01 -36 42.02 -36 41 C-35.34 41 -34.68 41 -34 41 C-33.731875 40.2575 -33.46375 39.515 -33.1875 38.75 C-32.04723249 36.10938051 -30.90619694 34.14447156 -29 32 C-28.34 32 -27.68 32 -27 32 C-27 31.01 -27 30.02 -27 29 C-26.34 29 -25.68 29 -25 29 C-24.9175 28.38125 -24.835 27.7625 -24.75 27.125 C-23.76374561 24.33061257 -22.56609601 24.283048 -20 23 C-19.24756445 21.07361988 -19.24756445 21.07361988 -19 19 C-18.505 17.515 -18.505 17.515 -18 16 C-17.34 16 -16.68 16 -16 16 C-15.731875 15.360625 -15.46375 14.72125 -15.1875 14.0625 C-14 12 -14 12 -11 11 C-11 9.68 -11 8.36 -11 7 C-10.34 7 -9.68 7 -9 7 C-8.6596875 6.1028125 -8.6596875 6.1028125 -8.3125 5.1875 C-6.43375091 2.05625152 -3.74574487 0 0 0 Z " fill="#C26FCF" transform="translate(382,346)"/>
<path d="M0 0 C0.33 0.66 0.66 1.32 1 2 C1.66 2 2.32 2 3 2 C3 2.66 3 3.32 3 4 C3.66 4 4.32 4 5 4 C8 8.38461538 8 8.38461538 8 11 C8.66 11 9.32 11 10 11 C12 14 12 14 12 18 C12.598125 18.226875 13.19625 18.45375 13.8125 18.6875 C16.59348403 20.35609042 17.5641916 22.1283832 19 25 C19 25.66 19 26.32 19 27 C19.66 27 20.32 27 21 27 C21 27.66 21 28.32 21 29 C21.66 29 22.32 29 23 29 C23.33 30.65 23.66 32.3 24 34 C24.66 34 25.32 34 26 34 C26 34.66 26 35.32 26 36 C26.66 36 27.32 36 28 36 C28 37.32 28 38.64 28 40 C29.485 40.495 29.485 40.495 31 41 C36.2620961 47.61721783 35.94364738 56.99791338 35.30126953 65.00292969 C34.62109794 69.51168464 32.55403498 73.28752773 30 77 C29.34 77 28.68 77 28 77 C27.34 78.32 26.68 79.64 26 81 C25.34 81 24.68 81 24 81 C23.67 81.99 23.34 82.98 23 84 C22.34 84 21.68 84 21 84 C21 84.66 21 85.32 21 86 C15.99926683 88.80041057 10.74548584 90.34821126 5 90 C5 90.99 5 91.98 5 93 C4.34 93 3.68 93 3 93 C3 92.34 3 91.68 3 91 C2.34 91 1.68 91 1 91 C1.19921875 89.0859375 1.19921875 89.0859375 2 87 C4.14453125 86.1640625 4.14453125 86.1640625 6.8125 85.625 C11.95681885 84.30425998 13.26649747 82.58837925 16 78 C19.25 76.625 19.25 76.625 22 76 C22 76.66 22 77.32 22 78 C23.64555699 76.77190909 23.64555699 76.77190909 25 75 C24.59070014 72.94603274 24.59070014 72.94603274 24 71 C24.99 70.01 24.99 70.01 26 69 C27.19602751 63.43524924 26.95673205 58.18597091 26.5625 52.5625 C26.48418945 51.32209961 26.48418945 51.32209961 26.40429688 50.05664062 C26.27590237 48.03734522 26.13884576 46.01860371 26 44 C24.02 44.495 24.02 44.495 22 45 C20.72648692 42.45297384 21.19808075 41.5717055 21.9375 38.875 C22.22947266 37.78832031 22.22947266 37.78832031 22.52734375 36.6796875 C22.68332031 36.12539063 22.83929687 35.57109375 23 35 C19.535 34.505 19.535 34.505 16 34 C14.84058962 30.52176885 15.29179116 28.54104422 16 25 C15.34 25 14.68 25 14 25 C14 24.34 14 23.68 14 23 C13.01 22.67 12.02 22.34 11 22 C9.94952356 19.68895182 8.94992562 17.35416349 8 15 C7.34 14.34 6.68 13.68 6 13 C5.34 14.32 4.68 15.64 4 17 C3.34 16.34 2.68 15.68 2 15 C2 14.01 2 13.02 2 12 C1.53833738 9.992592 0.98815403 8.01980516 0.4375 6.03515625 C0 4 0 4 0 0 Z " fill="#CE91DE" transform="translate(568,394)"/>
<path d="M0 0 C0.99 0 1.98 0 3 0 C3.08942032 6.14019499 3.06069086 11.93890936 2 18 C2.3185177 20.10820797 2.3185177 20.10820797 3 22 C3.33333333 23.33333333 3.66666667 24.66666667 4 26 C4.66 24.02 5.32 22.04 6 20 C6.66 20 7.32 20 8 20 C9.16979059 24.28923217 8.6225968 27.64182241 8 32 C8.35974895 34.81237541 8.35974895 34.81237541 9 37 C10.98 36.505 10.98 36.505 13 36 C13.33 36.99 13.66 37.98 14 39 C14.99 39 15.98 39 17 39 C17 39.66 17 40.32 17 41 C19.33199197 41.34731795 21.66422736 41.67973867 24 42 C24.75667969 42.10699219 25.51335937 42.21398437 26.29296875 42.32421875 C27.06253906 42.42347656 27.83210938 42.52273438 28.625 42.625 C29.69621094 42.76808594 29.69621094 42.76808594 30.7890625 42.9140625 C33.00050445 43.09706099 33.00050445 43.09706099 35.10485172 42.51330757 C38.91904705 41.83705366 42.67360066 41.86223294 46.53330994 41.87301636 C47.81968702 41.87067637 47.81968702 41.87067637 49.13205153 41.86828911 C52.00463714 41.86430165 54.87716986 41.86746007 57.74975586 41.87060547 C59.80969778 41.86925042 61.86963947 41.8674699 63.92958069 41.86529541 C69.52455639 41.86073313 75.11951367 41.86250578 80.7144897 41.8656745 C86.56800687 41.86820464 92.42152244 41.8658587 98.27503967 41.86428833 C108.10645837 41.86246841 117.93786955 41.86486815 127.76928711 41.86962891 C139.13627122 41.87506967 150.5032374 41.8733095 161.87022108 41.8678025 C171.62744899 41.86326453 181.3846715 41.86262423 191.14190012 41.86524117 C196.97037046 41.86680036 202.79883237 41.86700751 208.62730217 41.86370468 C214.10771588 41.86081611 219.58810647 41.86281987 225.06851768 41.86859894 C227.08008536 41.86992129 229.09165499 41.8695413 231.10322189 41.86733627 C233.84874302 41.86460419 236.59419002 41.86803119 239.33970642 41.87301636 C240.53402366 41.86967027 240.53402366 41.86967027 241.75246853 41.86625659 C245.94574932 41.88102614 249.86857998 42.17318302 254 43 C254 43.33 254 43.66 254 44 C252.86986607 44.00054477 251.73973213 44.00108953 250.57535172 44.00165081 C223.1014625 44.01603375 195.62773196 44.05899853 168.15393448 44.13209057 C154.86789196 44.16677251 141.58198732 44.19210029 128.29589844 44.19555664 C116.71838139 44.19859207 105.14104958 44.21902592 93.56360412 44.26052457 C87.43100182 44.28189434 81.29866315 44.29443468 75.16602325 44.28615379 C69.39738711 44.27863897 63.62928624 44.29433207 57.86074829 44.32806015 C55.74031909 44.33632442 53.61983696 44.33600715 51.49941254 44.32659721 C48.60999395 44.31504109 45.72234893 44.33399275 42.83306885 44.36076355 C41.98871159 44.35009029 41.14435433 44.33941703 40.27441049 44.32842034 C37.65123083 44.31862786 37.65123083 44.31862786 34 45 C31.55213812 47.39849544 31.55213812 47.39849544 30 50 C29.34 50 28.68 50 28 50 C28 51.32 28 52.64 28 54 C25.5625 56.625 25.5625 56.625 23 59 C22.67 59.66 22.34 60.32 22 61 C21.01 61 20.02 61 19 61 C19 60.01 19 59.02 19 58 C19.66 58 20.32 58 21 58 C21.11214844 57.41734375 21.22429687 56.8346875 21.33984375 56.234375 C22.06000876 53.79689343 23.04379395 52.2749414 24.5625 50.25 C25.01753906 49.63640625 25.47257812 49.0228125 25.94140625 48.390625 C26.29074219 47.93171875 26.64007813 47.4728125 27 47 C25.96875 46.87625 24.9375 46.7525 23.875 46.625 C20.37883154 46.06110186 17.31602373 45.21317941 14 44 C14 43.34 14 42.68 14 42 C13.2575 41.731875 12.515 41.46375 11.75 41.1875 C8.24297245 39.67310174 5.79792041 38.27667266 3.75 35 C3 33 3 33 3 30 C2.34 30 1.68 30 1 30 C-2.38913335 24.58096356 -2.42493348 20.05434386 -2.3125 13.875 C-2.31733398 12.53501953 -2.31733398 12.53501953 -2.32226562 11.16796875 C-2.2865841 6.82779777 -2.19373881 3.83508557 0 0 Z " fill="#EA79EE" transform="translate(311,438)"/>
<path d="M0 0 C0.91898785 -0.00427212 1.83797571 -0.00854425 2.78481168 -0.01294583 C5.8653524 -0.0211842 8.94453276 0.00632368 12.02494812 0.03364563 C14.23255379 0.03505591 16.44016181 0.03426451 18.64776611 0.03143311 C24.64335153 0.0299968 30.63843819 0.05942201 36.63390756 0.09430289 C42.89860277 0.12553023 49.16330904 0.12849429 55.42807007 0.13442993 C65.94384318 0.14821163 76.45946182 0.1794561 86.97514343 0.22407532 C97.80553777 0.26998206 108.63588236 0.30536846 119.46635437 0.32661438 C120.13412776 0.327928 120.80190115 0.32924161 121.4899101 0.33059504 C124.83998858 0.3371203 128.19006741 0.34343883 131.54014647 0.34965456 C159.32516561 0.40193675 187.10998051 0.48989987 214.89482117 0.60127258 C214.56482117 1.59127258 214.23482117 2.58127258 213.89482117 3.60127258 C213.23482117 3.60127258 212.57482117 3.60127258 211.89482117 3.60127258 C211.89482117 2.94127258 211.89482117 2.28127258 211.89482117 1.60127258 C140.28482117 1.93127258 68.67482117 2.26127258 -5.10517883 2.60127258 C-6.42517883 5.57127258 -7.74517883 8.54127258 -9.10517883 11.60127258 C-10.09517883 13.08627258 -10.09517883 13.08627258 -11.10517883 14.60127258 C-10.77517883 15.26127258 -10.44517883 15.92127258 -10.10517883 16.60127258 C-10.61306946 16.95318665 -11.12096008 17.30510071 -11.64424133 17.66767883 C-15.99906751 20.79108413 -19.4615228 23.89075439 -22.68330383 28.18330383 C-24.4149276 29.91017039 -25.76607415 30.05628531 -28.10517883 30.60127258 C-29.24063446 32.89661516 -29.24063446 32.89661516 -30.10517883 35.60127258 C-31.66767883 38.41377258 -31.66767883 38.41377258 -33.10517883 40.60127258 C-33.43517883 40.60127258 -33.76517883 40.60127258 -34.10517883 40.60127258 C-34.10517883 38.62127258 -34.10517883 36.64127258 -34.10517883 34.60127258 C-33.44517883 34.60127258 -32.78517883 34.60127258 -32.10517883 34.60127258 C-32.10517883 32.95127258 -32.10517883 31.30127258 -32.10517883 29.60127258 C-31.44517883 29.60127258 -30.78517883 29.60127258 -30.10517883 29.60127258 C-30.10517883 28.94127258 -30.10517883 28.28127258 -30.10517883 27.60127258 C-29.44517883 27.60127258 -28.78517883 27.60127258 -28.10517883 27.60127258 C-26.89889876 25.2691311 -25.93970504 23.1048512 -25.10517883 20.60127258 C-24.44517883 20.60127258 -23.78517883 20.60127258 -23.10517883 20.60127258 C-23.10517883 19.28127258 -23.10517883 17.96127258 -23.10517883 16.60127258 C-22.11517883 16.60127258 -21.12517883 16.60127258 -20.10517883 16.60127258 C-19.85767883 15.81752258 -19.61017883 15.03377258 -19.35517883 14.22627258 C-17.95128784 11.2781015 -17.09842146 10.69879488 -14.10517883 9.60127258 C-14.10517883 8.28127258 -14.10517883 6.96127258 -14.10517883 5.60127258 C-10.08151806 -0.05086427 -6.41421287 -0.1090047 0 0 Z " fill="#D062DF" transform="translate(353.1051788330078,482.3987274169922)"/>
<path d="M0 0 C1.13548782 -0.00852997 2.27097565 -0.01705994 3.44087219 -0.02584839 C5.28789986 -0.02448883 5.28789986 -0.02448883 7.17224121 -0.02310181 C8.48021164 -0.02981903 9.78818207 -0.03653625 11.13578796 -0.04345703 C14.71218661 -0.06107249 18.28848946 -0.06581039 21.86492729 -0.0670886 C24.1012712 -0.06851279 26.33759094 -0.07278734 28.57392883 -0.07808304 C36.3809666 -0.09656546 44.1879362 -0.10475551 51.99499512 -0.10317993 C59.26486524 -0.10197759 66.53443893 -0.12310253 73.80423403 -0.15466726 C80.05409275 -0.18083375 86.30385462 -0.19154714 92.55376768 -0.19026911 C96.28304706 -0.18975977 100.01206257 -0.1954276 103.74128723 -0.21662521 C107.89946739 -0.23961819 112.05698377 -0.23048454 116.21520996 -0.21841431 C117.44656174 -0.22965332 118.67791351 -0.24089233 119.94657898 -0.25247192 C126.25890266 -0.20583652 130.45632102 -0.13080982 135.19372559 4.26742554 C135.19372559 4.59742554 135.19372559 4.92742554 135.19372559 5.26742554 C132.88372559 5.26742554 130.57372559 5.26742554 128.19372559 5.26742554 C128.19372559 4.60742554 128.19372559 3.94742554 128.19372559 3.26742554 C83.97372559 3.26742554 39.75372559 3.26742554 -5.80627441 3.26742554 C-5.80627441 3.92742554 -5.80627441 4.58742554 -5.80627441 5.26742554 C-8.11627441 5.26742554 -10.42627441 5.26742554 -12.80627441 5.26742554 C-12.47627441 4.27742554 -12.14627441 3.28742554 -11.80627441 2.26742554 C-7.81474713 0.53635046 -4.32112826 0.01474535 0 0 Z " fill="#B783E6" transform="translate(394.8062744140625,340.7325744628906)"/>
<path d="M0 0 C44.22 0 88.44 0 134 0 C134 0.66 134 1.32 134 2 C136.31 2 138.62 2 141 2 C141 2.99 141 3.98 141 5 C141.66 5 142.32 5 143 5 C143 5.66 143 6.32 143 7 C143.66 7 144.32 7 145 7 C145 7.66 145 8.32 145 9 C141.5279326 7.95837978 138.70271922 6.82272096 135.5723877 4.95599365 C130.00369029 2.15856066 124.46091223 2.42775062 118.34179688 2.45410156 C117.09217163 2.44376389 115.84254639 2.43342621 114.55505371 2.42277527 C111.15041371 2.39843962 107.74659351 2.39150743 104.34192467 2.39249516 C100.77576022 2.38935397 97.20975699 2.36371086 93.64367676 2.34051514 C86.90074507 2.30004342 80.15790988 2.27963531 73.41487551 2.26654124 C65.73397599 2.25064115 58.05323998 2.21221298 50.37243557 2.17194796 C34.58167239 2.08966998 18.79094184 2.03550245 3 2 C3 2.66 3 3.32 3 4 C1.96875 4.4125 0.9375 4.825 -0.125 5.25 C-6.63973031 8.10019451 -10.46141073 11.07566795 -13.921875 17.29296875 C-15 19 -15 19 -17 20 C-16.49047288 15.54163771 -14.80244599 13.41548105 -12 10 C-11.22166466 7.81785432 -11.22166466 7.81785432 -11 6 C-10.34 6 -9.68 6 -9 6 C-9 5.34 -9 4.68 -9 4 C-8.34 4 -7.68 4 -7 4 C-7 3.34 -7 2.68 -7 2 C-4.69 2 -2.38 2 0 2 C0 1.34 0 0.68 0 0 Z " fill="#823FBF" transform="translate(389,344)"/>
<path d="M0 0 C0 0.99 0 1.98 0 3 C0.66 3 1.32 3 2 3 C2 3.66 2 4.32 2 5 C2.78375 5.12375 3.5675 5.2475 4.375 5.375 C7 6 7 6 9 8 C9.26991906 10.68839385 9.08737357 13.29141936 9 16 C9.66 16 10.32 16 11 16 C11 16.99 11 17.98 11 19 C11.66 19 12.32 19 13 19 C13.99 22.465 13.99 22.465 15 26 C14.01 26.99 13.02 27.98 12 29 C12 27.68 12 26.36 12 25 C11.34 25 10.68 25 10 25 C9.9175 24.21625 9.835 23.4325 9.75 22.625 C9.27193661 19.85250896 9.27193661 19.85250896 6.9375 18.6875 C6.298125 18.460625 5.65875 18.23375 5 18 C5 16.35 5 14.7 5 13 C4.38125 12.9175 3.7625 12.835 3.125 12.75 C1 12 1 12 -0.25 10.375 C-1 8 -1 8 -1 1 C-74.59 1 -148.18 1 -224 1 C-224 0.67 -224 0.34 -224 0 C-195.38467505 -0.15383409 -166.76932521 -0.30186925 -138.15393448 -0.4429636 C-124.86790606 -0.50860906 -111.58189386 -0.57616621 -98.29589844 -0.64819336 C-86.71848425 -0.71095299 -75.14105834 -0.7701568 -63.56360412 -0.82505554 C-57.43105966 -0.85426036 -51.2985361 -0.88526957 -45.16602325 -0.92053413 C-39.39761348 -0.95364884 -33.6292001 -0.98202035 -27.86074829 -1.00670624 C-25.74029392 -1.0166255 -23.61984694 -1.02829864 -21.49941254 -1.04183006 C-18.61063034 -1.06000588 -15.72188813 -1.07194648 -12.83306885 -1.08229065 C-11.56653296 -1.09249633 -11.56653296 -1.09249633 -10.27441049 -1.10290819 C-6.67451787 -1.10984635 -3.46341734 -0.97375587 0 0 Z " fill="#DE6FE7" transform="translate(569,482)"/>
<path d="M0 0 C2.93411909 2.93411909 2.42404734 6.06551751 2.4375 10 C2.44330078 11.14553345 2.44330078 11.14553345 2.44921875 12.31420898 C2.31783379 18.78012807 0.69338538 23.63140054 -3 29 C-3.66 29 -4.32 29 -5 29 C-5.66 30.32 -6.32 31.64 -7 33 C-7.66 33 -8.32 33 -9 33 C-9.33 33.99 -9.66 34.98 -10 36 C-10.66 36 -11.32 36 -12 36 C-12 36.66 -12 37.32 -12 38 C-17.00073317 40.80041057 -22.25451416 42.34821126 -28 42 C-28 42.99 -28 43.98 -28 45 C-28.66 45 -29.32 45 -30 45 C-30 44.34 -30 43.68 -30 43 C-30.66 43 -31.32 43 -32 43 C-31.80078125 41.0859375 -31.80078125 41.0859375 -31 39 C-28.85546875 38.1640625 -28.85546875 38.1640625 -26.1875 37.625 C-21.04318115 36.30425998 -19.73350253 34.58837925 -17 30 C-13.75 28.625 -13.75 28.625 -11 28 C-11 28.66 -11 29.32 -11 30 C-9.35444301 28.77190909 -9.35444301 28.77190909 -8 27 C-8.40929986 24.94603274 -8.40929986 24.94603274 -9 23 C-8.34 22.34 -7.68 21.68 -7 21 C-6.38649958 18.8105352 -5.85440188 16.59768143 -5.375 14.375 C-5.11460937 13.18648438 -4.85421875 11.99796875 -4.5859375 10.7734375 C-4.39257812 9.85820312 -4.19921875 8.94296875 -4 8 C-3.34 8.33 -2.68 8.66 -2 9 C-1.855625 7.700625 -1.71125 6.40125 -1.5625 5.0625 C-1.125 1.125 -1.125 1.125 0 0 Z " fill="#DF9BDD" transform="translate(601,442)"/>
<path d="M0 0 C0.66 0 1.32 0 2 0 C2 1.32 2 2.64 2 4 C1.34 4 0.68 4 0 4 C-0.12375 4.598125 -0.2475 5.19625 -0.375 5.8125 C-1 8 -1 8 -3 11 C-3.66 11 -4.32 11 -5 11 C-5 11.66 -5 12.32 -5 13 C-5.66 13 -6.32 13 -7 13 C-7 14.65 -7 16.3 -7 18 C-7.66 18 -8.32 18 -9 18 C-8.938125 19.546875 -8.938125 19.546875 -8.875 21.125 C-8.99700331 24.90710249 -9.77059659 27.46546519 -11 31 C-11.0396713 32.66619446 -11.04384447 34.33391013 -11 36 C-11.14953125 36.59554687 -11.2990625 37.19109375 -11.453125 37.8046875 C-12.09160602 40.36773272 -12.40968811 42.87341488 -12.6875 45.5 C-12.79449219 46.4384375 -12.90148437 47.376875 -13.01171875 48.34375 C-12.99922163 51.17643098 -12.46811708 52.61501287 -11 55 C-10.34 55 -9.68 55 -9 55 C-9 55.99 -9 56.98 -9 58 C-15.45577758 56.78192876 -15.45577758 56.78192876 -17.69921875 53.55859375 C-19.42232868 48.84462034 -19.51410049 44.668499 -19.5 39.6875 C-19.52835937 38.78837891 -19.55671875 37.88925781 -19.5859375 36.96289062 C-19.60569387 30.13212609 -17.80645841 25.63456015 -14 20 C-13.34 20 -12.68 20 -12 20 C-11.855625 19.21625 -11.71125 18.4325 -11.5625 17.625 C-11 15 -11 15 -10 13 C-9.34 13 -8.68 13 -8 13 C-7.67 11.68 -7.34 10.36 -7 9 C-6.34 9 -5.68 9 -5 9 C-5 8.01 -5 7.02 -5 6 C-4.34 6 -3.68 6 -3 6 C-3 5.34 -3 4.68 -3 4 C-2.34 4 -1.68 4 -1 4 C-0.67 2.68 -0.34 1.36 0 0 Z " fill="#D088D1" transform="translate(328,499)"/>
<path d="M0 0 C0.66 0 1.32 0 2 0 C2 1.65 2 3.3 2 5 C1.34 5 0.68 5 0 5 C0 5.66 0 6.32 0 7 C-0.66 7 -1.32 7 -2 7 C-2 7.99 -2 8.98 -2 10 C-2.66 10 -3.32 10 -4 10 C-4.268125 10.804375 -4.53625 11.60875 -4.8125 12.4375 C-5.204375 13.283125 -5.59625 14.12875 -6 15 C-6.99 15.33 -7.98 15.66 -9 16 C-9.02578125 16.68707031 -9.0515625 17.37414062 -9.078125 18.08203125 C-9.13484375 18.98308594 -9.1915625 19.88414062 -9.25 20.8125 C-9.31960938 22.15248047 -9.31960938 22.15248047 -9.390625 23.51953125 C-10.16326341 26.66456581 -11.38262656 27.22972223 -14 29 C-14.33 29.99 -14.66 30.98 -15 32 C-15.969375 32.598125 -16.93875 33.19625 -17.9375 33.8125 C-21.49638437 36.35456027 -21.902994 37.88622749 -23 42 C-23.99 42.495 -23.99 42.495 -25 43 C-26.3358023 45.53934695 -27.49950237 48.13683282 -28.68359375 50.75 C-30 53 -30 53 -33 54 C-33.67156616 55.93618425 -33.67156616 55.93618425 -34 58 C-34.33 58.66 -34.66 59.32 -35 60 C-36.98 60 -38.96 60 -41 60 C-41 59.01 -41 58.02 -41 57 C-40.34 57 -39.68 57 -39 57 C-38.855625 56.38125 -38.71125 55.7625 -38.5625 55.125 C-38 53 -38 53 -37 51 C-36.34 51 -35.68 51 -35 51 C-33.79371992 48.66785852 -32.8345262 46.50357861 -32 44 C-31.34 44 -30.68 44 -30 44 C-30 43.01 -30 42.02 -30 41 C-29.34 41 -28.68 41 -28 41 C-27.67 39.68 -27.34 38.36 -27 37 C-26.34 37 -25.68 37 -25 37 C-25 36.34 -25 35.68 -25 35 C-24.34 35 -23.68 35 -23 35 C-22.9175 34.46375 -22.835 33.9275 -22.75 33.375 C-21.72418729 30.12659309 -20.03436106 27.71248141 -18 25 C-17.34 25 -16.68 25 -16 25 C-15.7834375 24.071875 -15.7834375 24.071875 -15.5625 23.125 C-15 21 -15 21 -14 19 C-13.34 19 -12.68 19 -12 19 C-11.67 17.68 -11.34 16.36 -11 15 C-10.34 15 -9.68 15 -9 15 C-9 14.01 -9 13.02 -9 12 C-8.34 12 -7.68 12 -7 12 C-6.731875 11.2575 -6.46375 10.515 -6.1875 9.75 C-5.04723249 7.10938051 -3.90619694 5.14447156 -2 3 C-1.34 3 -0.68 3 0 3 C0 2.01 0 1.02 0 0 Z " fill="#B97ED8" transform="translate(355,375)"/>
<path d="M0 0 C3 1 3 1 4.1875 2.8125 C5 5 5 5 5 9 C5.66 9 6.32 9 7 9 C7.08797281 12.18732254 7.14071341 15.37432788 7.1875 18.5625 C7.21263672 19.45775391 7.23777344 20.35300781 7.26367188 21.27539062 C7.32638929 26.98267534 6.77970285 30.97515255 4 36 C1.8125 37.4375 1.8125 37.4375 0 38 C0 38.99 0 39.98 0 41 C-0.66 41 -1.32 41 -2 41 C-2 41.66 -2 42.32 -2 43 C-2.66 43 -3.32 43 -4 43 C-4 43.66 -4 44.32 -4 45 C-4.99 45 -5.98 45 -7 45 C-7 45.66 -7 46.32 -7 47 C-11.37149656 50.66641647 -15.60258708 50.31749488 -21 50 C-20.01 49.505 -20.01 49.505 -19 49 C-19 48.34 -19 47.68 -19 47 C-19.66 46.67 -20.32 46.34 -21 46 C-20.0925 46.0825 -19.185 46.165 -18.25 46.25 C-14.23374919 45.94105763 -13.60265844 44.93848534 -11 42 C-10.195625 41.525625 -9.39125 41.05125 -8.5625 40.5625 C-5.4814729 38.68382494 -3.27380494 36.80881786 -1 34 C-1.04979584 31.239835 -1.04979584 31.239835 -2 29 C-1.0409375 28.566875 -1.0409375 28.566875 -0.0625 28.125 C2.15206079 27.17176549 2.15206079 27.17176549 3 25 C3.2322646 22.28737884 3.41936235 19.59226874 3.5625 16.875 C3.60568359 16.12089844 3.64886719 15.36679687 3.69335938 14.58984375 C3.7994832 12.72678112 3.90025001 10.86341476 4 9 C3.34 9 2.68 9 2 9 C2 7.02 2 5.04 2 3 C1.34 3 0.68 3 0 3 C0 2.01 0 1.02 0 0 Z " fill="#E0ADDC" transform="translate(596,519)"/>
<path d="M0 0 C-0.62064937 1.60585493 -1.2466918 3.20962617 -1.875 4.8125 C-2.22304688 5.70582031 -2.57109375 6.59914063 -2.9296875 7.51953125 C-4 10 -4 10 -6 13 C-5.67 13.66 -5.34 14.32 -5 15 C-5.76183594 15.52787109 -5.76183594 15.52787109 -6.5390625 16.06640625 C-10.89388868 19.18981154 -14.35634396 22.28948181 -17.578125 26.58203125 C-19.30974877 28.30889781 -20.66089531 28.45501272 -23 29 C-24.13545562 31.29534258 -24.13545562 31.29534258 -25 34 C-26.5625 36.8125 -26.5625 36.8125 -28 39 C-28.33 39 -28.66 39 -29 39 C-29 37.02 -29 35.04 -29 33 C-28.34 33 -27.68 33 -27 33 C-27 31.35 -27 29.7 -27 28 C-26.34 28 -25.68 28 -25 28 C-25 27.34 -25 26.68 -25 26 C-24.34 26 -23.68 26 -23 26 C-21.79371992 23.66785852 -20.8345262 21.50357861 -20 19 C-19.34 19 -18.68 19 -18 19 C-18 17.68 -18 16.36 -18 15 C-17.01 15 -16.02 15 -15 15 C-14.7525 14.21625 -14.505 13.4325 -14.25 12.625 C-12.84610901 9.67682892 -11.99324263 9.0975223 -9 8 C-9 6.68 -9 5.36 -9 4 C-6.1830524 0.24406987 -4.55695971 -0.21160012 0 0 Z " fill="#B55DCF" transform="translate(348,484)"/>
<path d="M0 0 C2.97 0 5.94 0 9 0 C9 0.66 9 1.32 9 2 C9.66 2 10.32 2 11 2 C12.2890625 3.4609375 12.2890625 3.4609375 13.625 5.375 C14.07101562 6.00148438 14.51703125 6.62796875 14.9765625 7.2734375 C16 9 16 9 16 11 C16.66 11 17.32 11 18 11 C18 11.99 18 12.98 18 14 C18.66 14 19.32 14 20 14 C20 15.32 20 16.64 20 18 C20.99 18.33 21.98 18.66 23 19 C23 19.66 23 20.32 23 21 C18.05 21.495 18.05 21.495 13 22 C11.64560332 19.29120665 11.93498549 16.99066732 12 14 C9.525 13.01 9.525 13.01 7 12 C7 11.34 7 10.68 7 10 C5.35 10 3.7 10 2 10 C1.34 6.7 0.68 3.4 0 0 Z " fill="#A656D5" transform="translate(544,371)"/>
<path d="M0 0 C0 0.66 0 1.32 0 2 C-0.66 2 -1.32 2 -2 2 C-2 2.66 -2 3.32 -2 4 C-2.66 4 -3.32 4 -4 4 C-4.0825 4.886875 -4.165 5.77375 -4.25 6.6875 C-5.10062828 10.44444156 -6.51240104 12.1237137 -9 15 C-9.33 15.99 -9.66 16.98 -10 18 C-10.66 18 -11.32 18 -12 18 C-12.268125 18.969375 -12.53625 19.93875 -12.8125 20.9375 C-13.204375 21.948125 -13.59625 22.95875 -14 24 C-14.99 24.33 -15.98 24.66 -17 25 C-18.01866229 26.65532623 -19.01810813 28.32260138 -20 30 C-20.99 30.66 -21.98 31.32 -23 32 C-23.185625 32.9590625 -23.185625 32.9590625 -23.375 33.9375 C-24 36 -24 36 -26.5625 37.75 C-27.366875 38.1625 -28.17125 38.575 -29 39 C-29 38.01 -29 37.02 -29 36 C-28.34 36 -27.68 36 -27 36 C-27 35.34 -27 34.68 -27 34 C-26.34 34 -25.68 34 -25 34 C-25.061875 32.741875 -25.12375 31.48375 -25.1875 30.1875 C-25.19441101 26.28277965 -25.19441101 26.28277965 -23.625 24 C-22 23 -22 23 -20 23 C-19.7834375 22.1028125 -19.7834375 22.1028125 -19.5625 21.1875 C-19.1127561 19.43849596 -18.57107659 17.71322977 -18 16 C-17.34 16 -16.68 16 -16 16 C-15.731875 15.360625 -15.46375 14.72125 -15.1875 14.0625 C-14 12 -14 12 -11 11 C-11 9.68 -11 8.36 -11 7 C-10.34 7 -9.68 7 -9 7 C-8.6596875 6.1028125 -8.6596875 6.1028125 -8.3125 5.1875 C-6.43375091 2.05625152 -3.74574487 0 0 0 Z " fill="#A867CF" transform="translate(382,346)"/>
<path d="M0 0 C9.10966319 -1.09944211 15.27501087 2.69246695 23 7 C23 6.34 23 5.68 23 5 C22.34 5 21.68 5 21 5 C21 4.34 21 3.68 21 3 C20.34 3 19.68 3 19 3 C19 2.01 19 1.02 19 0 C19.66 0 20.32 0 21 0 C21 0.66 21 1.32 21 2 C21.598125 2.103125 22.19625 2.20625 22.8125 2.3125 C25.38994819 3.12255514 26.43063575 3.80289005 28 6 C28.1875 8.6875 28.1875 8.6875 28 11 C28.66 11 29.32 11 30 11 C30.33 14.63 30.66 18.26 31 22 C30.34 22.33 29.68 22.66 29 23 C29 21.68 29 20.36 29 19 C28.34 19 27.68 19 27 19 C27 18.01 27 17.02 27 16 C24.36 16 21.72 16 19 16 C19.350625 15.21625 19.70125 14.4325 20.0625 13.625 C20.371875 12.75875 20.68125 11.8925 21 11 C20.67 10.34 20.34 9.68 20 9 C17.67843403 8.59270772 15.3431213 8.25561323 13 8 C13 7.34 13 6.68 13 6 C11.02 6 9.04 6 7 6 C6.6596875 5.0409375 6.6596875 5.0409375 6.3125 4.0625 C5.14749104 1.72806339 5.14749104 1.72806339 2.375 1.25 C1.59125 1.1675 0.8075 1.085 0 1 C0 0.67 0 0.34 0 0 Z " fill="#8942C4" transform="translate(511,346)"/>
<path d="M0 0 C12.89668769 -0.68884385 12.89668769 -0.68884385 16.8125 1.9375 C17.534375 2.618125 18.25625 3.29875 19 4 C19 4.33 19 4.66 19 5 C16.69 5 14.38 5 12 5 C12 4.34 12 3.68 12 3 C-29.58 3 -71.16 3 -114 3 C-114 2.67 -114 2.34 -114 2 C-76.38 2 -38.76 2 0 2 C0 1.34 0 0.68 0 0 Z " fill="#A56DD8" transform="translate(511,341)"/>
<path d="M0 0 C0.99 0 1.98 0 3 0 C3.08942032 6.14019499 3.06069086 11.93890936 2 18 C2.3185177 20.10820797 2.3185177 20.10820797 3 22 C3.33333333 23.33333333 3.66666667 24.66666667 4 26 C4.66 24.02 5.32 22.04 6 20 C6.66 20 7.32 20 8 20 C9.16979059 24.28923217 8.6225968 27.64182241 8 32 C8.35974895 34.81237541 8.35974895 34.81237541 9 37 C6 35 6 35 5 32.9375 C4.10301684 30.64657009 4.10301684 30.64657009 1 30 C-2.56676487 24.80438466 -2.42269427 19.93127735 -2.3125 13.875 C-2.31733398 12.53501953 -2.31733398 12.53501953 -2.32226562 11.16796875 C-2.2865841 6.82779777 -2.19373881 3.83508557 0 0 Z " fill="#D999DC" transform="translate(311,438)"/>
<path d="M0 0 C1.95216435 1.95216435 2.84826645 3.53199953 4 6 C5.65 6 7.3 6 9 6 C9.33 6.99 9.66 7.98 10 9 C10.99 9 11.98 9 13 9 C13 9.66 13 10.32 13 11 C14.03125 11.12375 15.0625 11.2475 16.125 11.375 C19.62116846 11.93889814 22.68397627 12.78682059 26 14 C26 15.98 26 17.96 26 20 C25.34 20 24.68 20 24 20 C24 21.32 24 22.64 24 24 C21.5625 26.625 21.5625 26.625 19 29 C18.67 29.66 18.34 30.32 18 31 C17.01 31 16.02 31 15 31 C15 30.01 15 29.02 15 28 C15.66 28 16.32 28 17 28 C17.11214844 27.41734375 17.22429687 26.8346875 17.33984375 26.234375 C18.06000876 23.79689343 19.04379395 22.2749414 20.5625 20.25 C21.01753906 19.63640625 21.47257812 19.0228125 21.94140625 18.390625 C22.29074219 17.93171875 22.64007813 17.4728125 23 17 C21.453125 16.814375 21.453125 16.814375 19.875 16.625 C16.37883154 16.06110186 13.31602373 15.21317941 10 14 C10 13.34 10 12.68 10 12 C9.2575 11.731875 8.515 11.46375 7.75 11.1875 C5.01635483 10.00706231 3.13924018 9.06547328 1 7 C-0.25 3.8125 -0.25 3.8125 -1 1 C-0.67 0.67 -0.34 0.34 0 0 Z " fill="#E7A9E3" transform="translate(315,468)"/>
<path d="M0 0 C6.25201072 0.58981233 6.25201072 0.58981233 8.9375 2.0625 C10.69959328 5.27572893 10.17782537 8.3842174 10 12 C10.66 12 11.32 12 12 12 C12 12.99 12 13.98 12 15 C12.66 15 13.32 15 14 15 C14.66 17.31 15.32 19.62 16 22 C15.01 22.99 14.02 23.98 13 25 C13 23.68 13 22.36 13 21 C12.34 21 11.68 21 11 21 C10.9175 20.21625 10.835 19.4325 10.75 18.625 C10.27193661 15.85250896 10.27193661 15.85250896 7.9375 14.6875 C7.298125 14.460625 6.65875 14.23375 6 14 C6 12.35 6 10.7 6 9 C5.38125 8.9175 4.7625 8.835 4.125 8.75 C2 8 2 8 0.75 6.1875 C0 4 0 4 0 0 Z " fill="#BC7DD0" transform="translate(568,486)"/>
<path d="M0 0 C6.4511985 0.48688291 6.4511985 0.48688291 8.7421875 2.62890625 C10.45409447 5.85601038 10.15611477 8.07752361 9.8125 11.6875 C9.71582031 12.84636719 9.61914062 14.00523437 9.51953125 15.19921875 C9.34808594 16.12347656 9.17664063 17.04773438 9 18 C8.34 18.33 7.68 18.66 7 19 C6.34786708 21.02463255 6.34786708 21.02463255 6 23 C5.34 23 4.68 23 4 23 C3.67 17.06 3.34 11.12 3 5 C1.68 5.33 0.36 5.66 -1 6 C-1.33 5.34 -1.66 4.68 -2 4 C-1.0625 1.875 -1.0625 1.875 0 0 Z " fill="#D384D3" transform="translate(591,433)"/>
<path d="M0 0 C0.99 0.33 1.98 0.66 3 1 C1.66129846 8.62707585 -4.73927869 14.73927869 -10 20 C-10.67349161 21.66392045 -11.3409159 23.33032028 -12 25 C-14.125 26.8125 -14.125 26.8125 -16 28 C-16.36389263 22.26869113 -14.08712788 18.67454306 -11 14 C-9.70317626 12.63113049 -8.38176866 11.2830709 -7 10 C-6.67 9.01 -6.34 8.02 -6 7 C-5.360625 6.525625 -4.72125 6.05125 -4.0625 5.5625 C-1.83336183 3.87375896 -1.0554819 2.55074793 0 0 Z " fill="#AA53DB" transform="translate(365,370)"/>
<path d="M0 0 C3 1 3 1 4.1875 2.8125 C5 5 5 5 5 9 C5.66 9 6.32 9 7 9 C7.08797281 12.18732254 7.14071341 15.37432788 7.1875 18.5625 C7.22520508 19.90538086 7.22520508 19.90538086 7.26367188 21.27539062 C7.32638929 26.98267534 6.77970285 30.97515255 4 36 C1.8125 37.4375 1.8125 37.4375 0 38 C0 37.01 0 36.02 0 35 C0.66 35 1.32 35 2 35 C2 33.02 2 31.04 2 29 C2.66 29 3.32 29 4 29 C4 22.4 4 15.8 4 9 C3.34 9 2.68 9 2 9 C2 7.02 2 5.04 2 3 C1.34 3 0.68 3 0 3 C0 2.01 0 1.02 0 0 Z " fill="#E1ABE1" transform="translate(596,519)"/>
<path d="M0 0 C-0.99 0.66 -1.98 1.32 -3 2 C-3.556875 2.515625 -4.11375 3.03125 -4.6875 3.5625 C-7.44037854 5.27374882 -9.78311554 5.33730835 -12.9609375 5.62890625 C-16.28371417 6.23362614 -18.46901638 7.84866392 -21 10 C-21 10.99 -21 11.98 -21 13 C-21.66 13 -22.32 13 -23 13 C-23.33 13.66 -23.66 14.32 -24 15 C-25.6454378 16.68762851 -27.31288577 18.3540349 -29 20 C-29.66 20.66 -30.32 21.32 -31 22 C-31.99 22 -32.98 22 -34 22 C-33.0486632 18.80004895 -32.57541828 17.3331369 -29.625 15.625 C-26.60877697 13.75781432 -25.89405483 11.91068478 -24.28125 8.84765625 C-21.38548738 4.67175466 -16.71653223 1.7493882 -11.84765625 0.40625 C-7.93175483 -0.13491104 -3.94734538 -0.09868363 0 0 Z " fill="#923EDC" transform="translate(402,347)"/>
<path d="M0 0 C0.66 0 1.32 0 2 0 C2 0.66 2 1.32 2 2 C2.66 2 3.32 2 4 2 C4.33 3.65 4.66 5.3 5 7 C5.66 7 6.32 7 7 7 C7 7.66 7 8.32 7 9 C7.66 9 8.32 9 9 9 C9 9.66 9 10.32 9 11 C9.66 11 10.32 11 11 11 C11 12.65 11 14.3 11 16 C11.99 16 12.98 16 14 16 C14 16.66 14 17.32 14 18 C14.66 18 15.32 18 16 18 C16 18.99 16 19.98 16 21 C16.66 21 17.32 21 18 21 C18 22.32 18 23.64 18 25 C16 25 16 25 14.375 23.625 C13 22 13 22 13 20 C12.01 20 11.02 20 10 20 C10 19.34 10 18.68 10 18 C9.34 18 8.68 18 8 18 C7.34 18.66 6.68 19.32 6 20 C5.855625 18.783125 5.71125 17.56625 5.5625 16.3125 C5.17219047 13.17329623 4.67648144 10.0924866 4 7 C3.34 7 2.68 7 2 7 C2 6.01 2 5.02 2 4 C1.34 4 0.68 4 0 4 C0 2.68 0 1.36 0 0 Z " fill="#C889D7" transform="translate(578,494)"/>
<path d="M0 0 C0.66 0.33 1.32 0.66 2 1 C1.24163557 2.65161581 0.46787924 4.29617138 -0.3125 5.9375 C-0.74175781 6.85402344 -1.17101562 7.77054687 -1.61328125 8.71484375 C-3 11 -3 11 -6 12 C-6.67156616 13.93618425 -6.67156616 13.93618425 -7 16 C-7.33 16.66 -7.66 17.32 -8 18 C-9.98 18 -11.96 18 -14 18 C-14 17.01 -14 16.02 -14 15 C-13.34 15 -12.68 15 -12 15 C-11.7834375 14.071875 -11.7834375 14.071875 -11.5625 13.125 C-11 11 -11 11 -10 9 C-9.34 9 -8.68 9 -8 9 C-6.79371992 6.66785852 -5.8345262 4.50357861 -5 2 C-3.35 2 -1.7 2 0 2 C0 1.34 0 0.68 0 0 Z " fill="#C889D1" transform="translate(328,417)"/>
<path d="M0 0 C0.66 0 1.32 0 2 0 C1.45276317 3.37462715 0.9451 5.08235 -1 8 C-1.68939809 10.32671854 -2.35466922 12.66067594 -3 15 C-3.64199649 16.67632417 -4.29894157 18.34750513 -5 20 C-7.58507131 15.8016887 -6.8190969 12.97376402 -5.77734375 8.34375 C-4.8043359 5.41005798 -3.42818358 3.87988406 -1 2 C-0.67 1.34 -0.34 0.68 0 0 Z M-9 17 C-8.34 17.33 -7.68 17.66 -7 18 C-8.11631414 19.83863505 -9.24329627 21.67079723 -10.375 23.5 C-11.00148438 24.5209375 -11.62796875 25.541875 -12.2734375 26.59375 C-12.84320313 27.3878125 -13.41296875 28.181875 -14 29 C-14.66 29 -15.32 29 -16 29 C-16 29.66 -16 30.32 -16 31 C-16.99 31 -17.98 31 -19 31 C-18.70100785 27.41209425 -18.23013399 26.21833224 -15.5625 23.6875 C-13 22 -13 22 -11 22 C-10.855625 21.360625 -10.71125 20.72125 -10.5625 20.0625 C-10 18 -10 18 -9 17 Z " fill="#AD63CE" transform="translate(351,385)"/>
<path d="M0 0 C0.66 0 1.32 0 2 0 C2 0.66 2 1.32 2 2 C2.99 2.33 3.98 2.66 5 3 C5 3.66 5 4.32 5 5 C5.66 5 6.32 5 7 5 C7 5.99 7 6.98 7 8 C7.66 8 8.32 8 9 8 C9 9.98 9 11.96 9 14 C9.66 14 10.32 14 11 14 C11 18.95 11 23.9 11 29 C10.34 29.33 9.68 29.66 9 30 C8.33333333 27.33333333 7.66666667 24.66666667 7 22 C6.80019531 21.32582031 6.60039063 20.65164063 6.39453125 19.95703125 C6 18 6 18 6.625 14.4375 C6.810625 12.7359375 6.810625 12.7359375 7 11 C5.64555699 9.22809091 5.64555699 9.22809091 4 8 C4 7.01 4 6.02 4 5 C3.34 5 2.68 5 2 5 C1.67 5.99 1.34 6.98 1 8 C1 7.01 1 6.02 1 5 C0.34 5 -0.32 5 -1 5 C-0.67 3.35 -0.34 1.7 0 0 Z " fill="#CE88D2" transform="translate(589,514)"/>
<path d="M0 0 C1.051875 0.433125 1.051875 0.433125 2.125 0.875 C5.01683472 2.06453973 5.01683472 2.06453973 8.1875 2.875 C11 4 11 4 12.375 6.125 C12.58125 6.74375 12.7875 7.3625 13 8 C13.66 7.34 14.32 6.68 15 6 C15 7.65 15 9.3 15 11 C17.475 11.495 17.475 11.495 20 12 C19.67 12.66 19.34 13.32 19 14 C14.75776898 14.3636198 12.41831915 13.5393228 9 11 C9 10.34 9 9.68 9 9 C8.21625 8.9175 7.4325 8.835 6.625 8.75 C4 8 4 8 2.6875 5.9375 C2.460625 5.298125 2.23375 4.65875 2 4 C1.34 4 0.68 4 0 4 C0 2.68 0 1.36 0 0 Z " fill="#E0A5DC" transform="translate(314,555)"/>
<path d="M0 0 C1.32 0 2.64 0 4 0 C3.67 0.99 3.34 1.98 3 3 C2.34 3 1.68 3 1 3 C1 3.66 1 4.32 1 5 C-4.00073317 7.80041057 -9.25451416 9.34821126 -15 9 C-15 9.99 -15 10.98 -15 12 C-15.66 12 -16.32 12 -17 12 C-17 11.34 -17 10.68 -17 10 C-17.66 10 -18.32 10 -19 10 C-18.67 8.68 -18.34 7.36 -18 6 C-15.93771534 5.51990738 -13.87516299 5.04096456 -11.8125 4.5625 C-10.08966797 4.16224609 -10.08966797 4.16224609 -8.33203125 3.75390625 C-5.56076125 3.12687799 -2.78908126 2.54100823 0 2 C0 1.34 0 0.68 0 0 Z " fill="#EBA9E7" transform="translate(588,475)"/>
<path d="M0 0 C1.9375 0.8125 1.9375 0.8125 4 2 C4.33 2.99 4.66 3.98 5 5 C5.66 5 6.32 5 7 5 C7 6.32 7 7.64 7 9 C7.66 9 8.32 9 9 9 C9 9.66 9 10.32 9 11 C9.66 11 10.32 11 11 11 C12.625 13.5 12.625 13.5 14 16 C11.69 16.33 9.38 16.66 7 17 C6.34 15.35 5.68 13.7 5 12 C4.34 12 3.68 12 3 12 C2.67 8.7 2.34 5.4 2 2 C1.34 2 0.68 2 0 2 C0 1.34 0 0.68 0 0 Z " fill="#AA68CF" transform="translate(539,355)"/>
<path d="M0 0 C0.66 0 1.32 0 2 0 C1.94004678 1.79260132 1.8512759 3.58425795 1.75 5.375 C1.68039062 6.87160156 1.68039062 6.87160156 1.609375 8.3984375 C1 11 1 11 -0.9453125 12.265625 C-1.96238281 12.62914062 -1.96238281 12.62914062 -3 13 C-5.44383692 15.06786201 -6.68282066 17.10220545 -8 20 C-8.66666667 21.33333333 -9.33333333 22.66666667 -10 24 C-10.33 24 -10.66 24 -11 24 C-11 22.02 -11 20.04 -11 18 C-10.34 18 -9.68 18 -9 18 C-9 16.35 -9 14.7 -9 13 C-8.34 13 -7.68 13 -7 13 C-7 12.34 -7 11.68 -7 11 C-6.34 11 -5.68 11 -5 11 C-3.79371992 8.66785852 -2.8345262 6.50357861 -2 4 C-1.34 4 -0.68 4 0 4 C0 2.68 0 1.36 0 0 Z " fill="#C47CD0" transform="translate(330,499)"/>
<path d="M0 0 C0.66 0 1.32 0 2 0 C2 0.66 2 1.32 2 2 C2.8971875 2.1546875 2.8971875 2.1546875 3.8125 2.3125 C6.38994819 3.12255514 7.43063575 3.80289005 9 6 C9.1875 8.6875 9.1875 8.6875 9 11 C9.66 11 10.32 11 11 11 C11.33 14.63 11.66 18.26 12 22 C11.34 22.33 10.68 22.66 10 23 C10 21.68 10 20.36 10 19 C9.34 19 8.68 19 8 19 C8 16.69 8 14.38 8 12 C7.34 12 6.68 12 6 12 C6 10.35 6 8.7 6 7 C5.34 7 4.68 7 4 7 C4 6.34 4 5.68 4 5 C3.34 5 2.68 5 2 5 C2 4.34 2 3.68 2 3 C1.34 3 0.68 3 0 3 C0 2.01 0 1.02 0 0 Z " fill="#9D67C7" transform="translate(530,346)"/>
<path d="M0 0 C0.66 0 1.32 0 2 0 C2 1.65 2 3.3 2 5 C1.34 5 0.68 5 0 5 C-0.1546875 5.8971875 -0.1546875 5.8971875 -0.3125 6.8125 C-1 9 -1 9 -2.5 10.4375 C-4.46573078 12.48513623 -4.62668561 14.23747349 -5 17 C-6.32 17 -7.64 17 -9 17 C-9 17.66 -9 18.32 -9 19 C-9.99 19 -10.98 19 -12 19 C-12 18.01 -12 17.02 -12 16 C-11.34 16 -10.68 16 -10 16 C-9.67 14.68 -9.34 13.36 -9 12 C-8.34 12 -7.68 12 -7 12 C-7 11.34 -7 10.68 -7 10 C-6.34 10 -5.68 10 -5 10 C-4.9175 9.46375 -4.835 8.9275 -4.75 8.375 C-3.72418729 5.12659309 -2.03436106 2.71248141 0 0 Z " fill="#E8B5F2" transform="translate(337,400)"/>
<path d="M0 0 C-0.23396484 1.06541016 -0.23396484 1.06541016 -0.47265625 2.15234375 C-0.66730469 3.07144531 -0.86195313 3.99054688 -1.0625 4.9375 C-1.25972656 5.85402344 -1.45695313 6.77054687 -1.66015625 7.71484375 C-1.77230469 8.46894531 -1.88445313 9.22304688 -2 10 C-1.67 10.33 -1.34 10.66 -1 11 C-1.33 11.99 -1.66 12.98 -2 14 C-3.65 14 -5.3 14 -7 14 C-7.625 11.125 -7.625 11.125 -8 8 C-7.34 7.34 -6.68 6.68 -6 6 C-5.7834375 5.01 -5.7834375 5.01 -5.5625 4 C-4.72654183 1.02770427 -3.05882815 0 0 0 Z " fill="#D48CCE" transform="translate(600,457)"/>
<path d="M0 0 C0.66 0 1.32 0 2 0 C2 1.65 2 3.3 2 5 C1.34 5 0.68 5 0 5 C0 5.66 0 6.32 0 7 C-0.66 7 -1.32 7 -2 7 C-2 7.99 -2 8.98 -2 10 C-2.66 10 -3.32 10 -4 10 C-4.4021875 11.2065625 -4.4021875 11.2065625 -4.8125 12.4375 C-5.204375 13.283125 -5.59625 14.12875 -6 15 C-6.99 15.33 -7.98 15.66 -9 16 C-9 16.99 -9 17.98 -9 19 C-9.66 19 -10.32 19 -11 19 C-11 17.68 -11 16.36 -11 15 C-10.34 15 -9.68 15 -9 15 C-9 14.01 -9 13.02 -9 12 C-8.34 12 -7.68 12 -7 12 C-6.5978125 10.88625 -6.5978125 10.88625 -6.1875 9.75 C-5.04723249 7.10938051 -3.90619694 5.14447156 -2 3 C-1.34 3 -0.68 3 0 3 C0 2.01 0 1.02 0 0 Z " fill="#EBBBF7" transform="translate(355,375)"/>
<path d="M0 0 C0.66 1.32 1.32 2.64 2 4 C2.66 4 3.32 4 4 4 C4 4.66 4 5.32 4 6 C4.66 6 5.32 6 6 6 C6.33 7.65 6.66 9.3 7 11 C7.66 11 8.32 11 9 11 C9 11.66 9 12.32 9 13 C9.66 13 10.32 13 11 13 C10.67 14.32 10.34 15.64 10 17 C8.68 16.67 7.36 16.34 6 16 C6 14.68 6 13.36 6 12 C5.34 12 4.68 12 4 12 C4 11.01 4 10.02 4 9 C3.34 9 2.68 9 2 9 C0.14223235 5.86501708 -0.20140476 3.62528568 0 0 Z " fill="#D79FE4" transform="translate(585,417)"/>
<path d="M0 0 C3.3 0 6.6 0 10 0 C10 0.66 10 1.32 10 2 C12.31 2 14.62 2 17 2 C17 2.99 17 3.98 17 5 C17.66 5 18.32 5 19 5 C19 5.66 19 6.32 19 7 C19.66 7 20.32 7 21 7 C21 7.66 21 8.32 21 9 C17.47426641 7.94227992 14.29600453 6.67086013 11.0625 4.9375 C7.32394676 2.99979129 4.1811288 2.3484274 0 2 C0 1.34 0 0.68 0 0 Z " fill="#9256BA" transform="translate(513,344)"/>
<path d="M0 0 C0.66 0 1.32 0 2 0 C2 1.32 2 2.64 2 4 C1.34 4 0.68 4 0 4 C-0.12375 4.598125 -0.2475 5.19625 -0.375 5.8125 C-1 8 -1 8 -3 11 C-3.66 11 -4.32 11 -5 11 C-5 11.66 -5 12.32 -5 13 C-5.66 13 -6.32 13 -7 13 C-7 13.99 -7 14.98 -7 16 C-7.99 16 -8.98 16 -10 16 C-10 16.66 -10 17.32 -10 18 C-10.66 18 -11.32 18 -12 18 C-11.34 16.35 -10.68 14.7 -10 13 C-9.34 13 -8.68 13 -8 13 C-7.67 11.68 -7.34 10.36 -7 9 C-6.34 9 -5.68 9 -5 9 C-5 8.01 -5 7.02 -5 6 C-4.34 6 -3.68 6 -3 6 C-3 5.34 -3 4.68 -3 4 C-2.34 4 -1.68 4 -1 4 C-0.67 2.68 -0.34 1.36 0 0 Z " fill="#EAB6F0" transform="translate(328,499)"/>
<path d="M0 0 C1.72863281 0.02707031 1.72863281 0.02707031 3.4921875 0.0546875 C4.36101562 0.07789063 5.22984375 0.10109375 6.125 0.125 C5.125 2.125 5.125 2.125 3.5625 2.75 C0.06101819 3.28868951 -3.33306833 3.18403219 -6.875 3.125 C-6.875 3.785 -6.875 4.445 -6.875 5.125 C-9.185 5.125 -11.495 5.125 -13.875 5.125 C-13.545 4.135 -13.215 3.145 -12.875 2.125 C-8.5215531 0.17434575 -4.72758049 -0.09648123 0 0 Z " fill="#CDA6E9" transform="translate(395.875,340.875)"/>
<path d="M0 0 C0.99 0 1.98 0 3 0 C3 0.99 3 1.98 3 3 C2.34 3 1.68 3 1 3 C1 4.32 1 5.64 1 7 C-1.4375 9.625 -1.4375 9.625 -4 12 C-4.33 12.66 -4.66 13.32 -5 14 C-5.99 14 -6.98 14 -8 14 C-8 13.01 -8 12.02 -8 11 C-7.34 11 -6.68 11 -6 11 C-5.88398438 10.41734375 -5.76796875 9.8346875 -5.6484375 9.234375 C-4.9575492 6.85372375 -4.0488519 5.26928088 -2.625 3.25 C-2.20476562 2.63640625 -1.78453125 2.0228125 -1.3515625 1.390625 C-0.90554688 0.93171875 -0.45953125 0.4728125 0 0 Z " fill="#E3A7EC" transform="translate(338,485)"/>
<path d="M0 0 C0.99 0.33 1.98 0.66 3 1 C0.35629454 5.65795724 0.35629454 5.65795724 -1.5625 7.5 C-3.41760545 9.43576221 -4.0237704 11.52688502 -5 14 C-5.99 14.495 -5.99 14.495 -7 15 C-7.06058594 14.37351562 -7.12117188 13.74703125 -7.18359375 13.1015625 C-7.26738281 12.28429687 -7.35117187 11.46703125 -7.4375 10.625 C-7.51871094 9.81289063 -7.59992188 9.00078125 -7.68359375 8.1640625 C-7.89090114 5.95727195 -7.89090114 5.95727195 -9 4 C-8.34 4 -7.68 4 -7 4 C-7 3.34 -7 2.68 -7 2 C-6.34 2 -5.68 2 -5 2 C-5 3.32 -5 4.64 -5 6 C-2.9837767 5.28436734 -2.9837767 5.28436734 -1 4 C-0.19471111 1.94999129 -0.19471111 1.94999129 0 0 Z " fill="#CE7DD7" transform="translate(321,433)"/>
<path d="M0 0 C1.98 0 3.96 0 6 0 C6.33 3.3 6.66 6.6 7 10 C5.35 10 3.7 10 2 10 C1.34 6.7 0.68 3.4 0 0 Z " fill="#A24CD4" transform="translate(544,371)"/>
<path d="M0 0 C0.33 1.32 0.66 2.64 1 4 C0.34 4 -0.32 4 -1 4 C-1 5.98 -1 7.96 -1 10 C-1.66 10 -2.32 10 -3 10 C-3 10.99 -3 11.98 -3 13 C-3.66 13 -4.32 13 -5 13 C-5 13.66 -5 14.32 -5 15 C-5.99 15 -6.98 15 -8 15 C-8 15.66 -8 16.32 -8 17 C-8.99 16.67 -9.98 16.34 -11 16 C-8.66666667 13.66666667 -6.33333333 11.33333333 -4 9 C-4.32041397 6.39719432 -4.32041397 6.39719432 -5 4 C-4.360625 3.71125 -3.72125 3.4225 -3.0625 3.125 C-0.84793921 2.17176549 -0.84793921 2.17176549 0 0 Z " fill="#DC99D8" transform="translate(599,544)"/>
<path d="M0 0 C0.66 0 1.32 0 2 0 C3.2890625 1.4609375 3.2890625 1.4609375 4.625 3.375 C5.29402344 4.31472656 5.29402344 4.31472656 5.9765625 5.2734375 C7 7 7 7 7 9 C7.66 9 8.32 9 9 9 C9 9.99 9 10.98 9 12 C9.66 12 10.32 12 11 12 C11 13.32 11 14.64 11 16 C11.66 16 12.32 16 13 16 C13 16.66 13 17.32 13 18 C11.1875 17.875 11.1875 17.875 9 17 C6 11.96428571 6 11.96428571 6 9 C5.34 9 4.68 9 4 9 C4 8.34 4 7.68 4 7 C3.34 7 2.68 7 2 7 C1.34 4.69 0.68 2.38 0 0 Z " fill="#DBA4F1" transform="translate(553,373)"/>
<path d="M0 0 C0.66 0 1.32 0 2 0 C2 1.32 2 2.64 2 4 C1.34 4 0.68 4 0 4 C0 4.99 0 5.98 0 7 C-0.66 7 -1.32 7 -2 7 C-2 8.32 -2 9.64 -2 11 C-2.66 11 -3.32 11 -4 11 C-4.268125 11.639375 -4.53625 12.27875 -4.8125 12.9375 C-6 15 -6 15 -9 16 C-9 15.01 -9 14.02 -9 13 C-8.34 13 -7.68 13 -7 13 C-6.7834375 12.071875 -6.7834375 12.071875 -6.5625 11.125 C-6 9 -6 9 -5 7 C-4.34 7 -3.68 7 -3 7 C-1.79371992 4.66785852 -0.8345262 2.50357861 0 0 Z " fill="#F1ACF3" transform="translate(323,419)"/>
<path d="M0 0 C9.68087284 -0.68875775 9.68087284 -0.68875775 13.625 1.9375 C14.800625 2.9584375 14.800625 2.9584375 16 4 C16 4.33 16 4.66 16 5 C13.69 5 11.38 5 9 5 C9 4.34 9 3.68 9 3 C6.36 3 3.72 3 1 3 C0.67 2.01 0.34 1.02 0 0 Z " fill="#D49AED" transform="translate(514,341)"/>
<path d="M0 0 C0.99 0.33 1.98 0.66 3 1 C2.49477778 5.37859255 -0.17827222 7.81651224 -3 11 C-4.32 10.67 -5.64 10.34 -7 10 C-6 7 -6 7 -4.0625 5.5625 C-1.83336183 3.87375896 -1.0554819 2.55074793 0 0 Z " fill="#9C4FCC" transform="translate(365,370)"/>
<path d="M0 0 C0 1.32 0 2.64 0 4 C-0.66 4 -1.32 4 -2 4 C-2.061875 5.2375 -2.12375 6.475 -2.1875 7.75 C-2.60356929 11.30550124 -2.84255104 11.84639125 -5.5625 14.5 C-6.366875 14.995 -7.17125 15.49 -8 16 C-8.33 15.01 -8.66 14.02 -9 13 C-8.34 13 -7.68 13 -7 13 C-7 12.34 -7 11.68 -7 11 C-6.34 11 -5.68 11 -5 11 C-5.061875 9.741875 -5.12375 8.48375 -5.1875 7.1875 C-5.19441101 3.28277965 -5.19441101 3.28277965 -3.625 1 C-2 0 -2 0 0 0 Z " fill="#B378D4" transform="translate(362,369)"/>
<path d="M0 0 C0.66 0 1.32 0 2 0 C2.37105562 5.07109342 1.41027518 8.52377467 -1 13 C-3.1875 14.4375 -3.1875 14.4375 -5 15 C-5 14.01 -5 13.02 -5 12 C-4.34 12 -3.68 12 -3 12 C-3 10.02 -3 8.04 -3 6 C-2.34 6 -1.68 6 -1 6 C-0.67 4.02 -0.34 2.04 0 0 Z " fill="#EAB7E9" transform="translate(601,542)"/>
<path d="M0 0 C0.99 0.33 1.98 0.66 3 1 C2.67 2.98 2.34 4.96 2 7 C1.34 7 0.68 7 0 7 C0 8.65 0 10.3 0 12 C-0.99 12 -1.98 12 -3 12 C-3.66 12.66 -4.32 13.32 -5 14 C-4.03603575 8.79459302 -3.12319499 4.40086567 0 0 Z " fill="#D375DB" transform="translate(321,519)"/>
<path d="M0 0 C0.66 0 1.32 0 2 0 C3.16979059 4.28923217 2.6225968 7.64182241 2 12 C2.35974895 14.81237541 2.35974895 14.81237541 3 17 C0 15 0 15 -1 12 C-1.09287771 10.31454276 -1.12997204 8.625507 -1.125 6.9375 C-1.12757813 6.05964844 -1.13015625 5.18179687 -1.1328125 4.27734375 C-1 2 -1 2 0 0 Z " fill="#DB8FDB" transform="translate(317,458)"/>
<path d="M0 0 C0.95465783 2.16967689 1.14401212 3.56328793 0.3984375 5.82421875 C-0.35870385 7.5684743 -1.17609198 9.28627131 -2 11 C-2.33 10.34 -2.66 9.68 -3 9 C-3.66 9 -4.32 9 -5 9 C-5.0825 9.61875 -5.165 10.2375 -5.25 10.875 C-6 13 -6 13 -8.0625 14.25 C-8.701875 14.4975 -9.34125 14.745 -10 15 C-8.52307692 10.32307692 -8.52307692 10.32307692 -5.875 8.6875 C-5.25625 8.460625 -4.6375 8.23375 -4 8 C-4 6.68 -4 5.36 -4 4 C-2 1.75 -2 1.75 0 0 Z " fill="#BC78CD" transform="translate(343,484)"/>
<path d="M0 0 C0.66 0 1.32 0 2 0 C2 0.99 2 1.98 2 3 C1.34 3 0.68 3 0 3 C0 4.32 0 5.64 0 7 C-0.66 7 -1.32 7 -2 7 C-2.66 8.65 -3.32 10.3 -4 12 C-4.99 12 -5.98 12 -7 12 C-6.42415568 9.61435923 -5.77772405 7.33317216 -5 5 C-4.34 5 -3.68 5 -3 5 C-2.690625 4.360625 -2.38125 3.72125 -2.0625 3.0625 C-1 1 -1 1 0 0 Z " fill="#DFA2F2" transform="translate(369,357)"/>
<path d="M0 0 C0.66 0 1.32 0 2 0 C2 0.66 2 1.32 2 2 C1.34 2 0.68 2 0 2 C0 3.98 0 5.96 0 8 C-0.66 8 -1.32 8 -2 8 C-2 9.98 -2 11.96 -2 14 C-2.99 14.33 -3.98 14.66 -5 15 C-5.59551568 9.28304945 -4.40162446 6.30016401 -1.2890625 1.50390625 C-0.65097656 0.75947266 -0.65097656 0.75947266 0 0 Z " fill="#E6BEEC" transform="translate(314,520)"/>
<path d="M0 0 C0.99 0.99 1.98 1.98 3 3 C2.01 4.485 2.01 4.485 1 6 C-1.1640625 6.29296875 -1.1640625 6.29296875 -3.625 6.1875 C-4.44226563 6.16042969 -5.25953125 6.13335938 -6.1015625 6.10546875 C-7.04128906 6.05326172 -7.04128906 6.05326172 -8 6 C-7.34 5.67 -6.68 5.34 -6 5 C-6 4.34 -6 3.68 -6 3 C-6.66 2.67 -7.32 2.34 -8 2 C-7.05125 2.04125 -6.1025 2.0825 -5.125 2.125 C-1.89755144 2.34973818 -1.89755144 2.34973818 0 0 Z " fill="#EB9DDD" transform="translate(583,563)"/>
<path d="M0 0 C0 0.66 0 1.32 0 2 C-0.66 2 -1.32 2 -2 2 C-2 2.66 -2 3.32 -2 4 C-2.66 4 -3.32 4 -4 4 C-4 4.99 -4 5.98 -4 7 C-4.99 7 -5.98 7 -7 7 C-7 7.66 -7 8.32 -7 9 C-7.66 9 -8.32 9 -9 9 C-9 9.66 -9 10.32 -9 11 C-9.66 11 -10.32 11 -11 11 C-11 9.68 -11 8.36 -11 7 C-10.34 7 -9.68 7 -9 7 C-8.773125 6.401875 -8.54625 5.80375 -8.3125 5.1875 C-6.43375091 2.05625152 -3.74574487 0 0 0 Z " fill="#CBA9EA" transform="translate(382,346)"/>
<path d="M0 0 C0.99 0 1.98 0 3 0 C3 0.66 3 1.32 3 2 C2.34 2 1.68 2 1 2 C1.103125 2.9075 1.20625 3.815 1.3125 4.75 C1 8 1 8 -1.5 10.375 C-2.325 10.91125 -3.15 11.4475 -4 12 C-4 10.35 -4 8.7 -4 7 C-3.34 7 -2.68 7 -2 7 C-2 6.34 -2 5.68 -2 5 C-2.66 4.67 -3.32 4.34 -4 4 C-3.34 4 -2.68 4 -2 4 C-2 3.34 -2 2.68 -2 2 C-1.34 2 -0.68 2 0 2 C0 1.34 0 0.68 0 0 Z " fill="#C688CB" transform="translate(318,515)"/>
<path d="M0 0 C-0.61277612 2.96175123 -1.25372522 4.38058783 -3 7 C-3.66 7 -4.32 7 -5 7 C-5 7.66 -5 8.32 -5 9 C-5.99 9 -6.98 9 -8 9 C-7.70100785 5.41209425 -7.23013399 4.21833224 -4.5625 1.6875 C-2 0 -2 0 0 0 Z " fill="#B874CB" transform="translate(340,407)"/>
<path d="M0 0 C0.99 0 1.98 0 3 0 C3 0.66 3 1.32 3 2 C3.66 2 4.32 2 5 2 C6.25664978 4.90600261 7 6.79604584 7 10 C6.01 9.67 5.02 9.34 4 9 C4 8.34 4 7.68 4 7 C3.34 7 2.68 7 2 7 C0 4 0 4 0 0 Z " fill="#B064C9" transform="translate(563,394)"/>
<path d="M0 0 C0.66 0.33 1.32 0.66 2 1 C1.32829194 4.8063457 0.27253436 8.35206816 -1 12 C-1.99 12 -2.98 12 -4 12 C-4.33 12.66 -4.66 13.32 -5 14 C-5 13.01 -5 12.02 -5 11 C-4.34 11 -3.68 11 -3 11 C-3.061875 10.113125 -3.12375 9.22625 -3.1875 8.3125 C-2.98048018 4.65514983 -2.083926 2.95222849 0 0 Z " fill="#E0B0DF" transform="translate(601,456)"/>
<path d="M0 0 C0.66 0 1.32 0 2 0 C2 3.3 2 6.6 2 10 C2.66 10 3.32 10 4 10 C4 11.32 4 12.64 4 14 C3.34 14 2.68 14 2 14 C-0.40920141 9.78389753 -1.44250802 6.86758823 -1 2 C-0.67 1.34 -0.34 0.68 0 0 Z " fill="#EFB5EA" transform="translate(310,541)"/>
<path d="M0 0 C4.6302521 1.46218487 4.6302521 1.46218487 6.375 4 C7 6 7 6 6 8 C6.66 8.33 7.32 8.66 8 9 C6.125 8.75 6.125 8.75 4 8 C2.75 5.9375 2.75 5.9375 2 4 C1.34 4 0.68 4 0 4 C0 2.68 0 1.36 0 0 Z " fill="#F1A8F0" transform="translate(314,555)"/>
<path d="M0 0 C4.8 3.32307692 4.8 3.32307692 5.8125 6.75 C5.874375 7.4925 5.93625 8.235 6 9 C4.68 9.33 3.36 9.66 2 10 C0.39644899 6.49223216 -0.22036864 3.85645121 0 0 Z " fill="#B26BC2" transform="translate(573,406)"/>
<path d="M0 0 C2.16874252 0.50603992 3.99967627 0.99983813 6 2 C6 3.32 6 4.64 6 6 C3.36 6 0.72 6 -2 6 C-1.34 4.02 -0.68 2.04 0 0 Z " fill="#9243D7" transform="translate(532,356)"/>
<path d="M0 0 C0.66 0 1.32 0 2 0 C0.25 4.875 0.25 4.875 -2 6 C-2.433125 7.2065625 -2.433125 7.2065625 -2.875 8.4375 C-4 11 -4 11 -6.125 12.3125 C-7.053125 12.6528125 -7.053125 12.6528125 -8 13 C-6.63753351 6.43538874 -6.63753351 6.43538874 -3.4375 4.25 C-2.2309375 3.63125 -2.2309375 3.63125 -1 3 C-0.67 2.01 -0.34 1.02 0 0 Z " fill="#B66BC5" transform="translate(338,493)"/>
<path d="M0 0 C0.66 0.33 1.32 0.66 2 1 C0.625 3 0.625 3 -1 5 C-1.66 5 -2.32 5 -3 5 C-3.2475 5.886875 -3.495 6.77375 -3.75 7.6875 C-5.03934768 11.10427135 -6.59980129 13.2797748 -9 16 C-8.2927782 10.34222559 -6.0386079 4.81209591 -1.75 1 C-1.1725 0.67 -0.595 0.34 0 0 Z " fill="#A559D0" transform="translate(358,381)"/>
<path d="M0 0 C0.99 0 1.98 0 3 0 C5.09230769 4.43076923 5.09230769 4.43076923 4.625 7.3125 C4.41875 7.869375 4.2125 8.42625 4 9 C3.01 9 2.02 9 1 9 C0.67 6.03 0.34 3.06 0 0 Z " fill="#B178CD" transform="translate(550,371)"/>
<path d="M0 0 C0.99 0 1.98 0 3 0 C3 0.66 3 1.32 3 2 C3.66 2 4.32 2 5 2 C5 2.99 5 3.98 5 5 C5.66 5 6.32 5 7 5 C7 6.32 7 7.64 7 9 C5 9 5 9 3.375 7.625 C2 6 2 6 2 4 C1.34 4 0.68 4 0 4 C0 2.68 0 1.36 0 0 Z " fill="#E8B4EF" transform="translate(589,510)"/>
<path d="M0 0 C0.99 0 1.98 0 3 0 C3.66 2.97 4.32 5.94 5 9 C5.66 9 6.32 9 7 9 C7 9.66 7 10.32 7 11 C5.35 11 3.7 11 2 11 C0.84058962 7.52176885 1.29179116 5.54104422 2 2 C1.34 2 0.68 2 0 2 C0 1.34 0 0.68 0 0 Z " fill="#C27CD0" transform="translate(582,417)"/>
<path d="M0 0 C5.66104589 0.49658297 9.87674471 1.54510684 15 4 C15 4.33 15 4.66 15 5 C12.69 5 10.38 5 8 5 C8 4.34 8 3.68 8 3 C7.05125 3.061875 6.1025 3.12375 5.125 3.1875 C4.09375 3.125625 3.0625 3.06375 2 3 C1.34 2.01 0.68 1.02 0 0 Z " fill="#943CDB" transform="translate(516,349)"/>
<path d="M0 0 C1.32 0.33 2.64 0.66 4 1 C3.2575 1.70125 2.515 2.4025 1.75 3.125 C-0.92060885 5.91700016 -2.88092698 8.78485473 -5 12 C-5.99 12.495 -5.99 12.495 -7 13 C-6.65986985 7.55791766 -3.29703472 4.06331802 0 0 Z " fill="#8947C1" transform="translate(379,351)"/>
<path d="M0 0 C0.99 0.33 1.98 0.66 3 1 C3.33 2.65 3.66 4.3 4 6 C4.66 6 5.32 6 6 6 C6 6.99 6 7.98 6 9 C4.125 8.75 4.125 8.75 2 8 C-0.02755186 5.06004981 0 3.72295997 0 0 Z " fill="#AF6ACC" transform="translate(568,486)"/>
<path d="M0 0 C0.66 0 1.32 0 2 0 C4.04169485 2.90548882 5 4.40142046 5 8 C6.65 8 8.3 8 10 8 C10 8.66 10 9.32 10 10 C8.02 10 6.04 10 4 10 C0 3.375 0 3.375 0 0 Z " fill="#B176D8" transform="translate(557,382)"/>
<path d="M0 0 C0.66 0 1.32 0 2 0 C2 0.66 2 1.32 2 2 C2.8971875 2.1546875 2.8971875 2.1546875 3.8125 2.3125 C6.28243264 3.08876455 7.32251235 4.07088921 9 6 C8.67 6.66 8.34 7.32 8 8 C6.68 7.67 5.36 7.34 4 7 C4 6.34 4 5.68 4 5 C3.34 5 2.68 5 2 5 C2 4.34 2 3.68 2 3 C1.34 3 0.68 3 0 3 C0 2.01 0 1.02 0 0 Z " fill="#BA90D7" transform="translate(530,346)"/>
<path d="M0 0 C3.3 0 6.6 0 10 0 C9.67 0.66 9.34 1.32 9 2 C7.35 2 5.7 2 4 2 C4 2.99 4 3.98 4 5 C3.34 5 2.68 5 2 5 C2 4.34 2 3.68 2 3 C1.34 3 0.68 3 0 3 C0 2.01 0 1.02 0 0 Z " fill="#F7B6FC" transform="translate(569,482)"/>
<path d="M0 0 C0.99 0.33 1.98 0.66 3 1 C2.47599609 1.70576172 2.47599609 1.70576172 1.94140625 2.42578125 C1.48636719 3.04839844 1.03132813 3.67101562 0.5625 4.3125 C0.11003906 4.92738281 -0.34242188 5.54226563 -0.80859375 6.17578125 C-2.17336308 8.09677101 -2.17336308 8.09677101 -3 11 C-3.66 10.67 -4.32 10.34 -5 10 C-4.67 8.02 -4.34 6.04 -4 4 C-3.34 4 -2.68 4 -2 4 C-2 3.34 -2 2.68 -2 2 C-1.34 2 -0.68 2 0 2 C0 1.34 0 0.68 0 0 Z " fill="#9860C4" transform="translate(375,353)"/>
<path d="M0 0 C0 1.65 0 3.3 0 5 C-2.16874252 4.49396008 -3.99967627 4.00016187 -6 3 C-6 2.01 -6 1.02 -6 0 C-3.50907189 -1.24546405 -2.58919267 -0.7767578 0 0 Z " fill="#A45AC7" transform="translate(557,380)"/>
<path d="M0 0 C0.88257281 2.43245678 1.21943692 3.52647822 0.109375 5.921875 C-0.33921875 6.52515625 -0.7878125 7.1284375 -1.25 7.75 C-1.90742188 8.67039062 -1.90742188 8.67039062 -2.578125 9.609375 C-4 11 -4 11 -7 11 C-7 8 -7 8 -6 6 C-5.175 5.525625 -4.35 5.05125 -3.5 4.5625 C-0.70844517 3.18680459 -0.70844517 3.18680459 0 0 Z " fill="#9846D1" transform="translate(376,358)"/>
<path d="M0 0 C0.66 0 1.32 0 2 0 C2 0.66 2 1.32 2 2 C2.66 2 3.32 2 4 2 C4.33 3.65 4.66 5.3 5 7 C5.66 7 6.32 7 7 7 C6.67 7.66 6.34 8.32 6 9 C4.68 8.34 3.36 7.68 2 7 C2 6.01 2 5.02 2 4 C1.34 4 0.68 4 0 4 C0 2.68 0 1.36 0 0 Z " fill="#EBADF3" transform="translate(578,494)"/>
<path d="M0 0 C2.375 -0.1875 2.375 -0.1875 5 0 C5.66 0.99 6.32 1.98 7 3 C6.34 3 5.68 3 5 3 C5 3.66 5 4.32 5 5 C4.01 5 3.02 5 2 5 C2 4.34 2 3.68 2 3 C1.01 3 0.02 3 -1 3 C-0.67 2.01 -0.34 1.02 0 0 Z " fill="#DF8ED8" transform="translate(326,474)"/>
<path d="M0 0 C0.66 0 1.32 0 2 0 C2 0.66 2 1.32 2 2 C2.66 2 3.32 2 4 2 C5.625 4.5 5.625 4.5 7 7 C4.625 7.1875 4.625 7.1875 2 7 C0 4 0 4 0 0 Z " fill="#E3B1F1" transform="translate(546,364)"/>
<path d="M0 0 C0.66 0.33 1.32 0.66 2 1 C1.67 1.66 1.34 2.32 1 3 C-1.31 3 -3.62 3 -6 3 C-6 4.32 -6 5.64 -6 7 C-7.32 7 -8.64 7 -10 7 C-10.33 7.66 -10.66 8.32 -11 9 C-11 8.01 -11 7.02 -11 6 C-10.34 6 -9.68 6 -9 6 C-9 5.34 -9 4.68 -9 4 C-8.34 4 -7.68 4 -7 4 C-7 3.34 -7 2.68 -7 2 C-4.69 2 -2.38 2 0 2 C0 1.34 0 0.68 0 0 Z " fill="#9660BD" transform="translate(389,344)"/>
<path d="M0 0 C3.3 0 6.6 0 10 0 C10.33 1.32 10.66 2.64 11 4 C7.37 3.34 3.74 2.68 0 2 C0 1.34 0 0.68 0 0 Z " fill="#874FB5" transform="translate(513,344)"/>
<path d="M0 0 C0.66 0 1.32 0 2 0 C2 1.32 2 2.64 2 4 C1.34 4 0.68 4 0 4 C0 4.99 0 5.98 0 7 C-0.99 7 -1.98 7 -3 7 C-3 7.66 -3 8.32 -3 9 C-3.66 9 -4.32 9 -5 9 C-4.34 7.35 -3.68 5.7 -3 4 C-2.34 4 -1.68 4 -1 4 C-0.67 2.68 -0.34 1.36 0 0 Z " fill="#F6B1F9" transform="translate(321,508)"/>
<path d="M0 0 C0.66 0.66 1.32 1.32 2 2 C-2 5 -6 8 -10 11 C-8.55218207 7.55571735 -6.72305391 5.63869038 -3.875 3.25 C-3.15054687 2.63640625 -2.42609375 2.0228125 -1.6796875 1.390625 C-0.84824219 0.70226562 -0.84824219 0.70226562 0 0 Z " fill="#C466D7" transform="translate(341,497)"/>
<path d="M0 0 C2.0625 0.4375 2.0625 0.4375 4 1 C2.576875 1.928125 2.576875 1.928125 1.125 2.875 C-1.94445109 4.81970969 -1.94445109 4.81970969 -4 7 C-4 5.35 -4 3.7 -4 2 C-5.65 2 -7.3 2 -9 2 C-9 1.67 -9 1.34 -9 1 C-7.700625 1.020625 -6.40125 1.04125 -5.0625 1.0625 C-3.70834367 1.08399454 -2.35243917 1.07148199 -1 1 C-0.67 0.67 -0.34 0.34 0 0 Z " fill="#EC8EEA" transform="translate(345,480)"/>
<path d="M0 0 C0.99 0 1.98 0 3 0 C3.1875 3.375 3.1875 3.375 3 7 C2.01 7.66 1.02 8.32 0 9 C0 6.03 0 3.06 0 0 Z " fill="#D7A5DD" transform="translate(309,443)"/>
<path d="M0 0 C1.65 1.32 3.3 2.64 5 4 C4.34 5.65 3.68 7.3 3 9 C2.67 7.68 2.34 6.36 2 5 C1.34 5 0.68 5 0 5 C0 3.35 0 1.7 0 0 Z " fill="#BD6DD5" transform="translate(579,502)"/>
<path d="M0 0 C3.63 0 7.26 0 11 0 C11 0.99 11 1.98 11 3 C9.35333797 2.8864371 7.70763918 2.75882619 6.0625 2.625 C5.14597656 2.55539062 4.22945313 2.48578125 3.28515625 2.4140625 C2.15400391 2.20910156 2.15400391 2.20910156 1 2 C0.67 1.34 0.34 0.68 0 0 Z " fill="#FFBFFD" transform="translate(330,482)"/>
<path d="M0 0 C0.66 0 1.32 0 2 0 C3.2890625 1.4609375 3.2890625 1.4609375 4.625 3.375 C5.29402344 4.31472656 5.29402344 4.31472656 5.9765625 5.2734375 C7 7 7 7 7 9 C6.01 9 5.02 9 4 9 C4 8.34 4 7.68 4 7 C3.34 7 2.68 7 2 7 C1.34 4.69 0.68 2.38 0 0 Z " fill="#E9C6F6" transform="translate(553,373)"/>
<path d="M0 0 C0.33 1.32 0.66 2.64 1 4 C0.34 4 -0.32 4 -1 4 C-1.33 5.65 -1.66 7.3 -2 9 C-2.99 8.01 -3.98 7.02 -5 6 C-4.34 4.68 -3.68 3.36 -3 2 C-2.34 2 -1.68 2 -1 2 C-0.67 1.34 -0.34 0.68 0 0 Z " fill="#D38CD1" transform="translate(599,544)"/>
<path d="M0 0 C0.66 0 1.32 0 2 0 C2 2.31 2 4.62 2 7 C1.34 7 0.68 7 0 7 C-0.33 7.66 -0.66 8.32 -1 9 C-1.09765625 2.84765625 -1.09765625 2.84765625 -1 1 C-0.67 0.67 -0.34 0.34 0 0 Z " fill="#CE98D1" transform="translate(310,534)"/>
<path d="M0 0 C2 2 2 2 2.125 5.125 C2.08375 6.07375 2.0425 7.0225 2 8 C0.68 8 -0.64 8 -2 8 C-2.125 5.125 -2.125 5.125 -2 2 C-1.34 1.34 -0.68 0.68 0 0 Z " fill="#CF92D0" transform="translate(311,450)"/>
<path d="M0 0 C0.66 0 1.32 0 2 0 C2 0.99 2 1.98 2 3 C1.34 3 0.68 3 0 3 C0 3.66 0 4.32 0 5 C-0.66 5 -1.32 5 -2 5 C-2 5.66 -2 6.32 -2 7 C-2.99 7 -3.98 7 -5 7 C-5 6.34 -5 5.68 -5 5 C-4.34 5 -3.68 5 -3 5 C-3 4.01 -3 3.02 -3 2 C-2.01 2 -1.02 2 0 2 C0 1.34 0 0.68 0 0 Z " fill="#EEB2EA" transform="translate(594,557)"/>
<path d="M0 0 C2 2 2 2 2.9375 3.9375 C4.03621816 6.07030584 5.23587184 7.39624713 7 9 C4 9 4 9 1 7 C-0.1875 3.875 -0.1875 3.875 -1 1 C-0.67 0.67 -0.34 0.34 0 0 Z " fill="#F9C1F9" transform="translate(315,468)"/>
<path d="M0 0 C0.66 0 1.32 0 2 0 C2 0.66 2 1.32 2 2 C2.66 2 3.32 2 4 2 C4 3.65 4 5.3 4 7 C3.34 7 2.68 7 2 7 C2 6.34 2 5.68 2 5 C1.34 5 0.68 5 0 5 C0 3.35 0 1.7 0 0 Z " fill="#E3ACEE" transform="translate(585,503)"/>
<path d="M0 0 C1.9375 0.6875 1.9375 0.6875 4 2 C4.75 4.625 4.75 4.625 5 7 C4.01 7 3.02 7 2 7 C1.34 4.69 0.68 2.38 0 0 Z " fill="#EABEF3" transform="translate(573,487)"/>
<path d="M0 0 C1.32 0 2.64 0 4 0 C3.67 0.99 3.34 1.98 3 3 C0.93359375 3.73046875 0.93359375 3.73046875 -1.5625 4.1875 C-2.38878906 4.34605469 -3.21507812 4.50460937 -4.06640625 4.66796875 C-5.02353516 4.83232422 -5.02353516 4.83232422 -6 5 C-5.34 4.01 -4.68 3.02 -4 2 C-2.68 2 -1.36 2 0 2 C0 1.34 0 0.68 0 0 Z " fill="#E4A3E0" transform="translate(588,475)"/>
<path d="M0 0 C0.33 0.66 0.66 1.32 1 2 C1.66 2 2.32 2 3 2 C3 2.66 3 3.32 3 4 C3.66 4 4.32 4 5 4 C5 4.99 5 5.98 5 7 C3.68 7 2.36 7 1 7 C0.67 4.69 0.34 2.38 0 0 Z " fill="#CBA3E2" transform="translate(568,394)"/>
<path d="M0 0 C0.66 0 1.32 0 2 0 C1.875 2.25 1.875 2.25 1 5 C-2.0625 7.3125 -2.0625 7.3125 -5 9 C-5 6 -5 6 -3.0625 3.9375 C-2.381875 3.298125 -1.70125 2.65875 -1 2 C-0.67 1.34 -0.34 0.68 0 0 Z " fill="#BE7EDC" transform="translate(351,385)"/>
<path d="M0 0 C0.66 0 1.32 0 2 0 C2 1.32 2 2.64 2 4 C1.34 4 0.68 4 0 4 C0 4.66 0 5.32 0 6 C-0.99 6 -1.98 6 -3 6 C-2.42655063 3.13275314 -2.1385485 2.1385485 0 0 Z " fill="#E5B5F6" transform="translate(360,369)"/>
<path d="M0 0 C0.66 0 1.32 0 2 0 C2.66 1.65 3.32 3.3 4 5 C3.34 5 2.68 5 2 5 C1.67 5.99 1.34 6.98 1 8 C1 7.01 1 6.02 1 5 C0.34 5 -0.32 5 -1 5 C-0.67 3.35 -0.34 1.7 0 0 Z " fill="#C37ACE" transform="translate(589,514)"/>
<path d="M0 0 C-1.5830577 4.2742558 -4.50568404 6.26531794 -8 9 C-7.53918323 4.85264908 -4.48412936 0 0 0 Z " fill="#BB67CE" transform="translate(343,493)"/>
<path d="M0 0 C0.99 0.33 1.98 0.66 3 1 C2.34 2.65 1.68 4.3 1 6 C0.01 6 -0.98 6 -2 6 C-1.49396008 3.83125748 -1.00016187 2.00032373 0 0 Z " fill="#E7B2F4" transform="translate(341,394)"/>
<path d="M0 0 C1.32 0 2.64 0 4 0 C4 1.98 4 3.96 4 6 C3.01 6.495 3.01 6.495 2 7 C2 5.68 2 4.36 2 3 C1.34 3 0.68 3 0 3 C0 2.01 0 1.02 0 0 Z " fill="#964CC5" transform="translate(538,362)"/>
<path d="M0 0 C1.9375 0.8125 1.9375 0.8125 4 2 C4.33 2.99 4.66 3.98 5 5 C5.66 5 6.32 5 7 5 C7 5.66 7 6.32 7 7 C6.01 7 5.02 7 4 7 C4 6.34 4 5.68 4 5 C3.34 5 2.68 5 2 5 C2 4.01 2 3.02 2 2 C1.34 2 0.68 2 0 2 C0 1.34 0 0.68 0 0 Z " fill="#E592F3" transform="translate(539,355)"/>
<path d="M0 0 C0.99 0.33 1.98 0.66 3 1 C4.1875 4.0625 4.1875 4.0625 5 7 C4.01 7 3.02 7 2 7 C2 5.68 2 4.36 2 3 C1.34 3 0.68 3 0 3 C0 2.01 0 1.02 0 0 Z " fill="#EEB2EF" transform="translate(596,519)"/>
<path d="M0 0 C0.99 0 1.98 0 3 0 C3 0.66 3 1.32 3 2 C2.34 2 1.68 2 1 2 C0.34 3.65 -0.32 5.3 -1 7 C-1.33 6.34 -1.66 5.68 -2 5 C-2.66 4.67 -3.32 4.34 -4 4 C-3.34 4 -2.68 4 -2 4 C-2 3.34 -2 2.68 -2 2 C-1.34 2 -0.68 2 0 2 C0 1.34 0 0.68 0 0 Z " fill="#D5A1DB" transform="translate(318,515)"/>
<path d="M0 0 C-0.33 1.32 -0.66 2.64 -1 4 C-1.66 4 -2.32 4 -3 4 C-3 3.34 -3 2.68 -3 2 C-4.32 1.67 -5.64 1.34 -7 1 C-7 0.67 -7 0.34 -7 0 C-2.25 -1.125 -2.25 -1.125 0 0 Z " fill="#D480E3" transform="translate(569,392)"/>
<path d="M0 0 C0.59296875 0.20496094 1.1859375 0.40992188 1.796875 0.62109375 C0.51036794 1.31820106 -0.78253165 2.00352251 -2.078125 2.68359375 C-3.15707031 3.25787109 -3.15707031 3.25787109 -4.2578125 3.84375 C-4.89976562 4.10027344 -5.54171875 4.35679687 -6.203125 4.62109375 C-6.863125 4.29109375 -7.523125 3.96109375 -8.203125 3.62109375 C-2.74543269 -0.47217548 -2.74543269 -0.47217548 0 0 Z " fill="#8D3FCD" transform="translate(390.203125,348.37890625)"/>
<path d="M0 0 C1.65 0 3.3 0 5 0 C5 0.99 5 1.98 5 3 C3.35 3 1.7 3 0 3 C0 2.01 0 1.02 0 0 Z " fill="#EFA1EF" transform="translate(328,566)"/>
<path d="M0 0 C0 0.66 0 1.32 0 2 C-4.625 4.125 -4.625 4.125 -8 3 C-5.53387212 -0.1151089 -3.89156016 -0.31553191 0 0 Z " fill="#D890D0" transform="translate(588,475)"/>
<path d="M0 0 C0.33 1.32 0.66 2.64 1 4 C-0.98 4 -2.96 4 -5 4 C-4.67 3.01 -4.34 2.02 -4 1 C-1.9375 0.3125 -1.9375 0.3125 0 0 Z " fill="#E58CDF" transform="translate(588,471)"/>
<path d="M0 0 C0.66 0 1.32 0 2 0 C2.33 1.65 2.66 3.3 3 5 C1.68 5.33 0.36 5.66 -1 6 C-1.33 5.34 -1.66 4.68 -2 4 C-1.0625 1.875 -1.0625 1.875 0 0 Z " fill="#C971D5" transform="translate(591,433)"/>
<path d="M0 0 C0.66 0 1.32 0 2 0 C2 0.99 2 1.98 2 3 C0.68 3 -0.64 3 -2 3 C-2 3.66 -2 4.32 -2 5 C-2.99 5 -3.98 5 -5 5 C-5 4.01 -5 3.02 -5 2 C-3.35 2 -1.7 2 0 2 C0 1.34 0 0.68 0 0 Z " fill="#E3A5EB" transform="translate(330,414)"/>
<path d="M0 0 C0.99 0 1.98 0 3 0 C3.33 2.64 3.66 5.28 4 8 C1.10067643 5.60490662 0.49831724 3.68754757 0 0 Z " fill="#9A5AC1" transform="translate(547,371)"/>
</svg>
